<?xml version="1.0" encoding="utf-8"?>
<!-- Generator: Adobe Illustrator 21.1.0, SVG Export Plug-In . SVG Version: 6.00 Build 0)  -->
<svg version="1.1" id="Calque_3" xmlns="http://www.w3.org/2000/svg" xmlns:xlink="http://www.w3.org/1999/xlink" x="0px" y="0px"
	 viewBox="0 0 272.1 252.9" style="enable-background:new 0 0 272.1 252.9;" xml:space="preserve">
<style type="text/css">
	.st0{fill:#13BC13;}
	.st1{fill:#0F5AEF;}
	.st2{fill:#FF0000;}
</style>
<path class="st0" d="M215.9,233.4c-6.4,0-12.6-2-18.7-6.1c-5.4-3.6-10.6-8.7-15.6-15.3c-8.4-11.2-13.1-22.9-13.1-23l0.2-0.1
	c0,0.1,4.7,11.7,13.1,22.9c7.7,10.3,20.3,22.4,36.3,21.2c14-1,27-13.2,36.5-34.3c8.4-18.6,13.3-42.4,13.1-63.8
	C267.4,90.5,237.6,6.1,126.6,4.6C86.6,3.5,54.4,16.2,34.4,27C12.7,38.8,0.3,51,0.2,51.1L0,50.9c0.1-0.1,12.5-12.3,34.2-24.1
	C47,19.9,60.4,14.5,74.1,10.7c17.1-4.7,34.8-6.9,52.5-6.4c26.6,0.4,50.1,5.5,70.1,15.2c17.1,8.4,31.7,20.2,43.2,35.1
	c9.6,12.4,17,26.8,21.9,42.6c3.9,12.6,6.1,26,6.2,37.7c0.1,21.4-4.8,45.3-13.2,63.9c-4.5,10.1-9.8,18.1-15.7,24
	c-6.5,6.4-13.5,10-21,10.5C217.4,233.4,216.6,233.4,215.9,233.4z"/>
<path d="M168.6,188.5c5,10.3,10.1,20.7,17.6,29.3c1.9,2.1,3.9,4.2,6,6c2.2,1.8,4.5,3.4,7,4.8c4.9,2.7,10.4,4.6,15.9,4.9
	c5.6,0.4,11.1-0.9,15.8-3.8c4.8-2.8,8.8-6.8,12.3-11.2c7.1-8.8,11.9-19.2,15.6-29.9c3.8-10.7,6.4-21.8,7.8-33
	c0.7-5.6,1.1-11.3,1.1-16.9c0.1-5.7-0.2-11.3-0.8-16.9c-1.2-11.2-3.9-22.3-7.9-32.8c-2-5.3-4.4-10.4-7-15.4s-5.6-9.8-8.9-14.4
	c-6.5-9.2-14.3-17.4-23.1-24.5c-8.7-7.1-18.5-12.9-28.7-17.5C181,12.7,170.1,9.6,159,7.5c-11.1-2-22.5-2.9-33.8-2.9
	C102.5,4.5,79.8,8.2,58.4,16c-5.4,1.9-10.6,4.1-15.8,6.5c-5.1,2.4-10.2,5.1-15.1,7.9c-4.9,2.9-9.7,6-14.3,9.4
	C8.7,43.4,4.2,47,0.1,51c3.8-4.3,8.1-8.2,12.6-11.8s9.1-7,14-10.2c9.6-6.3,20-11.7,30.7-15.9c2.7-1.1,5.4-2,8.1-3
	c2.8-0.9,5.5-1.8,8.3-2.6c5.5-1.7,11.2-3,16.8-4.2c11.4-2.1,23-3.2,34.6-3.3c11.6,0,23.2,0.8,34.7,2.9c11.4,2.1,22.7,5.2,33.5,9.9
	c21.5,9.3,40.2,24.6,53.8,43.7c13.5,19.1,21.9,41.7,24.2,64.9c1.2,11.6,0.9,23.3-0.7,34.8s-4.5,22.8-8.5,33.7s-9.2,21.5-16.7,30.5
	c-3.7,4.5-8.1,8.6-13.3,11.5c-2.6,1.4-5.4,2.5-8.4,3.1c-2.9,0.6-5.9,0.8-8.9,0.5c-5.9-0.5-11.5-2.6-16.6-5.6
	c-2.5-1.5-4.9-3.2-7.1-5.1c-2.2-1.9-4.2-4.1-6-6.3c-3.7-4.5-6.7-9.4-9.4-14.5C173.3,199,171,193.7,168.6,188.5z"/>
<path class="st1" d="M142.9,123.9l54,129h-37l-9-23h-36l11-27h14.5l-14.5-37l-35,87h-37l55-129C108.9,123.9,142.9,123.9,142.9,123.9
	z"/>
<path class="st2" d="M162.6,248.9l-9-23h-32.8l7.7-19h17.7l-20.3-51.8l-37.8,93.8H60l51.6-121h28.7l50.7,121H162.6z"/>
</svg>
