<?xml version="1.0" encoding="utf-8"?>
<!-- Generator: Adobe Illustrator 21.1.0, SVG Export Plug-In . SVG Version: 6.00 Build 0)  -->
<svg version="1.1" id="Calque_2" xmlns="http://www.w3.org/2000/svg" xmlns:xlink="http://www.w3.org/1999/xlink" x="0px" y="0px"
	 viewBox="0 0 185.3 174.9" style="enable-background:new 0 0 185.3 174.9;" xml:space="preserve">
<style type="text/css">
	.st0{fill:#F20C0C;}
</style>
<path class="st0" d="M160.1,151.7l-51.9-124H77.5l-52.9,124h31.5l36.7-91.3l18.1,46.3H94.4l-9,22h34l9,23H160.1z M109.9,25.2l54,129
	h-37l-9-23h-36l11-27h14.5l-14.5-37l-35,87h-37l55-129C75.9,25.2,109.9,25.2,109.9,25.2z M160.1,151.7l-51.9-124H77.5l-52.9,124
	h31.5l36.7-91.3l18.1,46.3H94.4l-9,22h34l9,23H160.1z"/>
</svg>
