<?xml version="1.0" encoding="utf-8"?>
<!-- Generator: Adobe Illustrator 21.1.0, SVG Export Plug-In . SVG Version: 6.00 Build 0)  -->
<svg version="1.1" id="Calque_3" xmlns="http://www.w3.org/2000/svg" xmlns:xlink="http://www.w3.org/1999/xlink" x="0px" y="0px"
	 viewBox="0 0 272.1 252.9" style="enable-background:new 0 0 272.1 252.9;" xml:space="preserve">
<style type="text/css">
	.st0{fill:#42EA13;}
	.st1{fill:#ED1111;}
	.st2{fill:#FF0000;}
</style>
<path fill="red" d="M142.9,123.9l54,129h-37l-9-23h-36l11-27h14.5l-14.5-37l-35,87h-37l55-129C108.9,123.9,142.9,123.9,142.9,123.9
	z"/>
<path fill="#10171e" d="M142.9,123.9h-34l-55,129h37l35-87l14.5,37h-14.5l-11,27h36l9,23h37L142.9,123.9z M151.6,228.9h-35.2l10.1-25
	h15.3l-15.9-40.7l-35.7,88.7H55.5l54.2-127h32.7l53.2,127h-35L151.6,228.9z"/>
<polygon fill="#10171e" points="161.9,249.9 152.9,226.9 119.3,226.9 127.8,205.9 144.7,205.9 125.9,157.8 88.8,249.9 58.5,249.9
	110.9,126.9 141,126.9 192.5,249.9 "/>
</svg>
