<?xml version="1.0" encoding="utf-8"?>
<!-- Generator: Adobe Illustrator 21.1.0, SVG Export Plug-In . SVG Version: 6.00 Build 0)  -->
<svg version="1.1" id="Calque_3" xmlns="http://www.w3.org/2000/svg" xmlns:xlink="http://www.w3.org/1999/xlink" x="0px" y="0px"
	 viewBox="0 0 272.1 252.9" style="enable-background:new 0 0 272.1 252.9;" xml:space="preserve">
<style type="text/css">
	.st0{fill:#00FF12;}
	.st1{fill:#0F5AEF;}
	.st2{fill:#FF0000;}
</style>
<path class="st0" d="M213.3,215.8c-21.1,0-39.2-25-50.8-45.9c-12.4-22.6-20.1-45.5-20.1-45.8l0.5-0.2c0.3,0.9,30.9,90.9,70.4,90.9
	c22.3,0,35.1-16.1,42-29.6c7.6-15,12.2-35.1,12.2-53.9c0-18.6-6.5-49.4-24.8-75C218.6,22.5,181,5.4,131,5.4
	c-53.4,0-85,11.4-102.2,20.9C10.2,36.6,4.2,47.1,4.1,47.2l-0.9-0.5c0.2-0.4,6.2-10.7,25-21.2C45.5,15.9,77.3,4.4,131,4.4
	c27.1,0,50.8,5.1,70.7,15.2c16.8,8.5,30.8,20.7,41.8,36c18.4,25.8,25,56.8,25,75.6c0,18.9-4.6,39.3-12.3,54.4
	C246.2,205.4,231.4,215.8,213.3,215.8z"/>
<path d="M142.9,123.9c0,0,30.1,91.4,70.6,91.4s54.5-50.6,54.5-83.7S245,4.8,131.5,4.8S0.1,53.3,0.1,53.3s19.2-51,133.8-51
	s138.2,95,138.2,130.5s-18.6,91-57.1,91s-62.3-71.8-62.3-71.8L142.9,123.9L142.9,123.9z"/>
<path class="st1" d="M142.9,123.9l54,129h-37l-9-23h-36l11-27h14.5l-14.5-37l-35,87h-37l55-129C108.9,123.9,142.9,123.9,142.9,123.9
	z"/>
<path class="st2" d="M162.6,248.9l-9-23h-32.8l7.7-19h17.7l-20.3-51.8l-37.8,93.8H60l51.6-121h28.7l50.7,121H162.6z"/>
</svg>
