<?xml version="1.0" encoding="utf-8"?>
<!-- Generator: Adobe Illustrator 16.0.0, SVG Export Plug-In . SVG Version: 6.00 Build 0)  -->
<!DOCTYPE svg PUBLIC "-//W3C//DTD SVG 1.1//EN" "http://www.w3.org/Graphics/SVG/1.1/DTD/svg11.dtd">
<svg version="1.1" id="Calque_2_1_" xmlns="http://www.w3.org/2000/svg" xmlns:xlink="http://www.w3.org/1999/xlink" x="0px"
	 y="0px" width="142.713px" height="133.224px" viewBox="0.287 -1.662 142.713 133.224"
	 enable-background="new 0.287 -1.662 142.713 133.224" xml:space="preserve">
<path fill="#F20C0C" d="M76.166,131.563c-9.149,0-17.75-1.646-25.803-4.941c-8.052-3.293-15.037-7.896-20.953-13.816
	c-5.919-5.916-10.614-12.93-14.091-21.045c-3.477-8.111-5.215-16.928-5.215-26.443v-0.366c0-9.271,1.707-17.963,5.124-26.078
	c3.414-8.112,8.112-15.189,14.091-21.228c5.976-6.039,13.084-10.766,21.319-14.183c8.235-3.414,17.231-5.124,26.993-5.124
	c6.588,0,12.563,0.641,17.934,1.921c5.367,1.281,10.276,3.111,14.731,5.49c4.452,2.379,8.478,5.215,12.078,8.509
	c3.597,3.294,6.8,6.894,9.607,10.797l-26.718,20.679c-3.66-4.635-7.686-8.295-12.078-10.98c-4.393-2.682-9.699-4.026-15.921-4.026
	c-4.515,0-8.633,0.886-12.353,2.653c-3.723,1.77-6.926,4.181-9.608,7.229c-2.685,3.051-4.789,6.651-6.313,10.797
	c-1.527,4.149-2.287,8.541-2.287,13.176v0.366c0,4.758,0.76,9.241,2.287,13.45c1.524,4.209,3.629,7.841,6.313,10.889
	c2.682,3.051,5.885,5.462,9.608,7.229c3.72,1.771,7.838,2.654,12.353,2.654c3.294,0,6.313-0.366,9.058-1.098
	c2.746-0.732,5.244-1.799,7.504-3.203c2.256-1.401,4.392-3.049,6.404-4.941c2.014-1.89,3.995-3.994,5.947-6.313l26.719,19.031
	c-3.051,4.148-6.377,7.992-9.974,11.529c-3.601,3.539-7.687,6.588-12.261,9.15c-4.575,2.562-9.699,4.574-15.372,6.039
	C89.617,130.83,83.24,131.563,76.166,131.563z"/>
</svg>
