<?xml version="1.0" encoding="utf-8"?>
<!-- Generator: Adobe Illustrator 21.1.0, SVG Export Plug-In . SVG Version: 6.00 Build 0)  -->
<svg version="1.1" id="Calque_2_-_copie_3" xmlns="http://www.w3.org/2000/svg" xmlns:xlink="http://www.w3.org/1999/xlink" x="0px"
	 y="0px" viewBox="0 0 1021 174.9" style="enable-background:new 0 0 1021 174.9;" xml:space="preserve">
<style type="text/css">
	.st0{fill:#2CFF00;}
</style>
<path class="st0" d="M116.8,114.7c-2,1.9-4.1,3.5-6.4,4.9c-2.3,1.4-4.8,2.5-7.5,3.2c-2.8,0.7-5.8,1.1-9.1,1.1
	c-4.6,0-8.7-0.9-12.4-2.7c-3.7-1.7-6.9-4.1-9.6-7.2s-4.8-6.7-6.3-10.9c-1.5-4.2-2.3-8.6-2.3-13.4v-0.4c0-4.7,0.8-9.1,2.3-13.2
	c1.5-4.1,3.6-7.7,6.3-10.8c2.7-3,5.9-5.4,9.6-7.2c3.8-1.8,7.9-2.7,12.4-2.7c6.2,0,11.5,1.3,15.9,4c4.4,2.7,8.4,6.4,12.1,11
	l26.6-20.7c-2.8-3.9-6-7.5-9.6-10.8c-3.6-3.3-7.6-6.1-12.1-8.5c-4.4-2.4-9.3-4.2-14.7-5.5c-5.3-1.3-11.3-1.9-17.9-1.9
	c-9.7,0-18.7,1.7-27,5.1c-8.2,3.4-15.3,8.2-21.3,14.2S35.1,55.4,31.7,63.5c-3.4,8.1-5.1,16.8-5.1,26.1V90c0,9.5,1.8,18.3,5.2,26.5
	c3.5,8.1,8.2,15.1,14.1,21c6,5.9,12.9,10.5,21,13.8c8.1,3.3,16.7,4.9,25.8,4.9c7.1,0,13.4-0.7,19-2.1c5.7-1.4,10.8-3.4,15.4-6
	c4.6-2.6,8.7-5.7,12.3-9.2c3.6-3.5,6.9-7.4,10-11.5l-26.7-19C120.8,110.7,118.8,112.8,116.8,114.7z M142.2,128.4
	c-2.1,2.6-4.2,4.9-6.3,6.9c-3.4,3.3-7.2,6.1-11.3,8.4c-4.3,2.4-8.9,4.2-14.2,5.5c-5.2,1.3-11.2,2-17.8,2c-8.5,0-16.5-1.5-23.9-4.5
	c-7.4-3-13.7-7.2-19.4-12.7c-5.4-5.4-9.8-12-13-19.4c-3.2-7.7-4.8-16-4.8-24.6v-0.4c0-8.6,1.6-16.7,4.7-24.2
	c3.2-7.5,7.5-14.1,13-19.6c5.6-5.6,12.2-10,19.7-13.1c7.7-3.1,16.1-4.7,25.1-4.7c6.3,0,12,0.6,16.7,1.8c5.1,1.2,9.5,2.9,13.5,5.1
	c4.2,2.2,7.8,4.8,11.1,7.8c2.1,2,4.1,4,6,6.2l-18.9,14.7c-3.2-3.4-6.6-6.2-10.2-8.4c-5.1-3.1-11.4-4.7-18.5-4.7
	c-5.2,0-10.1,1.1-14.6,3.2c-4.3,2.1-8,4.9-11.2,8.4c-3.1,3.5-5.5,7.7-7.2,12.4c-1.7,4.7-2.6,9.7-2.6,14.9v0.4
	c0,5.3,0.8,10.2,2.6,15.1c1.7,4.7,4.1,8.9,7.2,12.5c3.1,3.6,6.9,6.4,11.2,8.4c4.4,2.1,9.2,3.2,14.5,3.2c3.6,0,6.9-0.4,10.4-1.3
	c3.1-0.8,6-2.1,8.8-3.8c2.6-1.6,5-3.4,7.2-5.5c1.1-1.1,2.2-2.1,3.2-3.2L142.2,128.4z"/>
<path class="st0" d="M214.4,25.2l-55,129h37l35-87l14.5,37h-14.5l-11,27h36l9,23h37l-54-129H214.4z M268.8,149.2l-9-23h-32l6.9-17
	h18.5l-21.8-55.5L193,149.2H167l50.7-119h27.4l49.8,119H268.8z"/>
<path class="st0" d="M399.9,109c8-3.4,14.4-8.3,19.2-14.8c4.7-6.4,7.1-14.6,7.1-24.5v-0.4c0-12.5-3.7-22.5-11.3-29.8
	c-4.3-4.3-9.9-7.8-16.7-10.2c-6.9-2.5-15.2-3.7-25.1-3.7h-60.6v128.1H348v-38.8h15.3h0.4l25.8,38.8h41L399.9,109z M366.4,109.9H343
	v38.8h-25.5V30.6h55.6c9.4,0,17.1,1.1,23.4,3.4c6,2.1,10.9,5.1,14.8,9l0.1,0.1c6.6,6.3,9.8,14.9,9.8,26.2v0.4c0,8.8-2.1,16-6.1,21.5
	c-4.3,5.8-9.9,10.1-17.1,13.2l-5.6,2.4l28.7,41.9h-28.8L366.4,109.9z"/>
<path class="st0" d="M395.4,71.5c0-8.4-3.9-13-7.1-15.4c-4.3-3.2-10-4.8-17.1-4.8H343V92h23.4v0.1h5c7.2,0,13-1.8,17.3-5.2
	c4.5-3.7,6.7-8.7,6.7-15V71.5z M390.4,71.9c0,4.7-1.6,8.4-4.9,11.1s-8,4.1-14.1,4.1V87H348V56.3h23.2c6,0,10.7,1.3,14.1,3.8
	c3.4,2.5,5.1,6.3,5.1,11.4V71.9z"/>
<path class="st0" d="M495.4,25.2l-55,129h37l35-87l14.5,37h-14.5l-11,27h36l9,23h37l-54-129H495.4z M549.8,149.2l-9-23h-32l6.9-17
	h18.5l-21.8-55.5L474,149.2H448l50.7-119h27.4l49.8,119H549.8z"/>
<path class="st0" d="M695.6,87c-4.2-3.1-9.2-5.7-15.1-7.8c-6-2.2-12.6-4-19.9-5.6c-4.4-0.9-8-1.9-10.9-2.8c-2.9-0.9-5.2-1.8-6.8-2.7
	c-1.7-0.9-2.8-1.9-3.5-3c-0.7-1.1-1-2.3-1-3.8v-0.4c0-2.3,1.1-4.2,3.2-5.8c2.1-1.6,5.3-2.4,9.6-2.4c5.7,0,11.6,1.1,17.8,3.2
	c6.1,2.1,12.1,5.3,18,9.4l17.8-25.1c-6.9-5.6-14.7-9.9-23.3-12.8c-8.6-2.9-18.4-4.3-29.4-4.3c-7.7,0-14.6,1-20.7,3
	s-11.3,4.8-15.6,8.5c-4.4,3.7-7.6,8-9.9,13c-2.3,5-3.4,10.4-3.4,16.4v0.5c0,6.5,1.3,12.1,3.8,16.5s5.9,8.1,10.2,11.1
	s9.5,5.4,15.3,7.3c5.8,1.9,12.2,3.6,19,5.2c4.4,0.9,8,1.9,10.7,2.8c2.8,0.9,5,1.8,6.6,2.8c1.7,1,2.8,2,3.4,3
	c0.6,1.1,0.9,2.3,0.9,3.6v0.4c0,2.8-1.3,5-3.8,6.5s-6.1,2.3-10.9,2.3c-14.8,0-28.7-5.2-41.5-15.4l-19.8,23.7
	c8,7.1,17.1,12.4,27.4,16c10.3,3.5,21.2,5.3,32.7,5.3c7.8,0,14.9-1,21.3-2.9c6.4-1.9,11.8-4.6,16.3-8.2c4.5-3.6,8-8,10.5-13.1
	c2.5-5.1,3.8-10.9,3.8-17.5v-0.4c0-5.9-1.1-11.1-3.3-15.4C702.9,93.7,699.7,90,695.6,87z M703.4,113.9c0,5.8-1.1,10.8-3.3,15.3
	c-2.2,4.5-5.3,8.3-9.1,11.4c-4,3.2-8.8,5.6-14.6,7.3c-6,1.8-12.7,2.7-19.9,2.7c-10.8,0-21.3-1.7-31.1-5c-8.2-2.9-15.4-6.8-22-11.9
	l13.5-16.2c12.7,9,26.3,13.5,40.7,13.5c5.7,0,10.1-1,13.5-3c4-2.4,6.2-6.2,6.2-10.8v-0.4c0-2.1-0.5-4.2-1.5-6l-0.1-0.2
	c-1.1-1.8-2.7-3.3-5.1-4.7c-1.9-1.2-4.3-2.2-7.6-3.3c-3.3-1.1-7.1-2.1-11.2-2.9c-7.3-1.7-13.4-3.4-18.5-5.1
	c-5.6-1.8-10.3-4.1-14-6.6c-3.7-2.6-6.6-5.7-8.7-9.5c-2.1-3.7-3.1-8.4-3.1-14V64c0-5.3,1-10,2.9-14.3c2-4.4,4.8-8.1,8.6-11.3
	c3.8-3.2,8.3-5.7,13.9-7.5c5.6-1.8,12-2.8,19.1-2.8c10.5,0,19.9,1.4,27.8,4c6.5,2.2,12.5,5.2,18,9.1l-12.2,17.2
	c-5.1-3.1-10.1-5.6-15.1-7.3c-6.9-2.3-13.2-3.5-19.4-3.5c-5.5,0-9.6,1.1-12.6,3.4c-4.3,3.3-5.2,7.1-5.2,9.8v0.4
	c0,2.5,0.6,4.6,1.8,6.5c1.2,1.9,3,3.4,5.3,4.7c1.9,1,4.4,2.1,7.7,3.1c3.8,1.2,7.5,2.1,11.3,2.9c7.5,1.6,13.8,3.4,19.3,5.4
	c5.3,1.9,10,4.3,13.8,7.1c3.5,2.5,6.2,5.7,8,9.3c1.8,3.6,2.8,8,2.8,13.1V113.9z"/>
<path class="st0" d="M811.2,114.7c-2,1.9-4.1,3.5-6.4,4.9c-2.3,1.4-4.8,2.5-7.5,3.2c-2.8,0.7-5.8,1.1-9.1,1.1
	c-4.6,0-8.7-0.9-12.4-2.7c-3.7-1.7-6.9-4.1-9.6-7.2s-4.8-6.7-6.3-10.9c-1.5-4.2-2.3-8.6-2.3-13.4v-0.4c0-4.7,0.8-9.1,2.3-13.2
	c1.5-4.1,3.6-7.7,6.3-10.8c2.7-3,5.9-5.4,9.6-7.2c3.8-1.8,7.9-2.7,12.4-2.7c6.2,0,11.5,1.3,15.9,4c4.4,2.7,8.4,6.4,12.1,11
	l26.6-20.7c-2.8-3.9-6-7.5-9.6-10.8c-3.6-3.3-7.6-6.1-12.1-8.5c-4.4-2.4-9.3-4.2-14.7-5.5c-5.3-1.3-11.3-1.9-17.9-1.9
	c-9.7,0-18.7,1.7-27,5.1c-8.2,3.4-15.3,8.2-21.3,14.2s-10.7,13.1-14.1,21.2S721,80.3,721,89.6V90c0,9.5,1.8,18.3,5.2,26.5
	c3.5,8.1,8.2,15.1,14.1,21c6,5.9,12.9,10.5,21,13.8s16.7,4.9,25.8,4.9c7.1,0,13.4-0.7,19-2.1c5.7-1.4,10.8-3.4,15.4-6
	c4.6-2.6,8.7-5.7,12.3-9.2s6.9-7.4,10-11.5l-26.7-19C815.2,110.7,813.2,112.8,811.2,114.7z M817.9,115.1l18.8,13.3
	c-2.1,2.6-4.2,4.9-6.3,6.9c-3.4,3.3-7.1,6.1-11.3,8.4c-4.3,2.4-8.9,4.2-14.2,5.5c-5.2,1.3-11.2,2-17.8,2c-8.5,0-16.5-1.5-23.9-4.5
	c-7.4-3-13.7-7.2-19.4-12.7c-5.4-5.4-9.8-12-13-19.4c-3.2-7.7-4.8-16-4.8-24.6v-0.4c0-8.6,1.6-16.7,4.7-24.2
	c3.2-7.5,7.5-14.1,13-19.6c5.6-5.6,12.2-10,19.7-13.1c7.7-3.1,16.1-4.7,25.1-4.7c6.3,0,12,0.6,16.7,1.8c5.1,1.2,9.5,2.9,13.5,5.1
	c4.2,2.2,7.8,4.8,11.1,7.8c2.1,2,4.1,4,6,6.2l-18.9,14.7c-3.2-3.4-6.6-6.2-10.2-8.4c-5.1-3.1-11.4-4.7-18.5-4.7
	c-5.2,0-10.1,1.1-14.6,3.2c-4.3,2.1-8,4.9-11.2,8.4c-3.1,3.5-5.5,7.7-7.2,12.4c-1.7,4.7-2.6,9.7-2.6,14.9v0.4
	c0,5.3,0.8,10.2,2.6,15.1c1.7,4.7,4.1,8.9,7.2,12.5c3.1,3.6,6.9,6.4,11.2,8.4c4.4,2.1,9.2,3.2,14.5,3.2c3.6,0,6.9-0.4,10.4-1.3
	c3.1-0.8,6-2.1,8.8-3.8c2.6-1.6,5-3.4,7.2-5.5C815.8,117.3,816.8,116.2,817.9,115.1z"/>
<path class="st0" d="M952.7,62.1c-3.3-3.6-7.4-6.6-12.1-8.8c-4.6-2.2-9.8-3.3-15.5-3.3c-5.6,0-10.7,1.1-15.4,3.1
	c-4.5,2-8.5,4.9-11.9,8.5c-3.4,3.6-6,7.9-7.6,12.6c-1.7,4.7-2.6,9.7-2.6,14.9v0.4c0,5.2,0.9,10.2,2.7,15c1.9,4.8,4.4,9,7.7,12.5
	c3.4,3.7,7.3,6.6,12,8.8l0.1,0c4.9,2.2,10,3.2,15.4,3.2c5.6,0,10.8-1.1,15.5-3.1c4.7-2.1,8.7-5,12-8.6c3.2-3.6,5.8-7.8,7.5-12.4
	c1.8-4.7,2.7-9.7,2.7-15v-0.4c0-5.2-0.9-10.2-2.7-15C958.6,70,956,65.8,952.7,62.1z M958.2,90.1c0,4.7-0.8,9.1-2.4,13.2
	c-1.6,4.2-3.8,7.8-6.6,10.9s-6.3,5.6-10.3,7.4c-4,1.8-8.5,2.7-13.4,2.7s-9.3-1-13.4-2.8c-4.1-1.9-7.5-4.4-10.4-7.6s-5.1-6.9-6.7-11
	c-1.6-4.2-2.4-8.6-2.4-13.2v-0.4c0-4.7,0.8-9.1,2.3-13.2c1.5-4.2,3.7-7.8,6.6-10.9c2.9-3.1,6.3-5.6,10.3-7.4c4-1.8,8.4-2.7,13.3-2.7
	s9.4,0.9,13.4,2.8c4.1,1.9,7.6,4.4,10.5,7.6c2.9,3.2,5.2,6.9,6.8,11c1.6,4.2,2.4,8.6,2.4,13.2V90.1z"/>
<path class="st0" d="M974.8,42.5c-6.1-6-13.4-10.7-21.8-14.2c-8.5-3.5-17.6-5.2-27.5-5.2c-9.8,0-19,1.7-27.4,5.2
	c-8.5,3.5-15.8,8.3-22,14.3s-11,13.1-14.5,21.2c-3.5,8.1-5.2,16.7-5.2,25.9v0.4c0,9.1,1.7,17.7,5.2,25.8c3.5,8,8.3,15,14.4,21
	s13.4,10.7,21.8,14.2c8.5,3.5,17.6,5.2,27.5,5.2c9.8,0,19-1.7,27.4-5.2c8.5-3.5,15.8-8.3,22-14.3s11-13.1,14.5-21.2
	c3.5-8.1,5.2-16.8,5.2-25.9v-0.4c0-9.1-1.7-17.7-5.2-25.8C985.7,55.5,980.9,48.5,974.8,42.5z M989.4,89.7c0,8.5-1.6,16.6-4.8,23.9
	c-3.3,7.6-7.8,14.2-13.4,19.6c-5.8,5.6-12.7,10.1-20.4,13.3c-7.7,3.2-16.2,4.8-25.5,4.8c-9.3,0-17.7-1.6-25.6-4.8
	c-7.9-3.3-14.7-7.7-20.2-13.1c-5.6-5.5-10.1-12.1-13.3-19.4c-3.2-7.4-4.8-15.4-4.8-23.8v-0.4c0-8.6,1.6-16.5,4.8-23.9
	c3.3-7.6,7.8-14.2,13.4-19.6c5.8-5.6,12.7-10.1,20.4-13.3c7.7-3.2,16.2-4.8,25.5-4.8c9.3,0,17.7,1.6,25.6,4.8
	c7.9,3.3,14.7,7.7,20.2,13.1c5.6,5.5,10.1,12.1,13.3,19.4c3.2,7.4,4.8,15.4,4.8,23.8V89.7z"/>
</svg>
