<?xml version="1.0" encoding="utf-8"?>
<!-- Generator: Adobe Illustrator 21.1.0, SVG Export Plug-In . SVG Version: 6.00 Build 0)  -->
<svg version="1.1" id="Calque_2_-_copie_5" xmlns="http://www.w3.org/2000/svg" xmlns:xlink="http://www.w3.org/1999/xlink" x="0px"
	 y="0px" viewBox="0 0 1021 174.9" style="enable-background:new 0 0 1021 174.9;" xml:space="preserve">
<style type="text/css">
	.st0{fill:#F20C0C;}
</style>
<path class="st0" d="M111.6,121.7c2.5-1.5,4.7-3.2,6.8-5.2c1.6-1.5,3.2-3.1,4.6-4.8l22.7,16.2c-2.8,3.5-5.5,6.5-8.2,9.2
	c-3.5,3.4-7.5,6.4-11.8,8.8c-4.5,2.5-9.3,4.4-14.8,5.8c-5.4,1.3-11.6,2-18.4,2c-8.8,0-17.2-1.6-24.9-4.7
	c-7.7-3.1-14.3-7.5-20.2-13.3c-5.6-5.6-10.2-12.5-13.6-20.2c-3.3-8-5-16.6-5-25.5v-0.4c0-8.9,1.7-17.4,4.9-25.1
	c3.3-7.8,7.8-14.7,13.6-20.4c5.9-5.9,12.7-10.4,20.5-13.7c8-3.3,16.7-4.9,26.1-4.9c6.5,0,12.4,0.6,17.3,1.8c5.3,1.3,10,3,14.1,5.3
	c4.4,2.3,8.2,5,11.6,8.1c2.9,2.6,5.5,5.5,7.8,8.5l-22.8,17.7c-3.5-4.1-7.2-7.2-11.2-9.7c-4.7-2.9-10.5-4.4-17.2-4.4
	c-4.9,0-9.3,1-13.5,3c-4,1.9-7.5,4.6-10.4,7.8c-2.9,3.3-5.2,7.2-6.8,11.6c-1.6,4.4-2.5,9.2-2.5,14.1v0.4c0,5,0.8,9.6,2.4,14.2
	c1.6,4.4,3.9,8.4,6.8,11.7c2.9,3.4,6.4,6,10.4,7.8c4.1,2,8.5,3,13.5,3c3.4,0,6.5-0.4,9.7-1.2C106.3,124.5,109,123.3,111.6,121.7z
	 M216.1,27.7l-52.9,124h31.5l36.7-91.3l18.1,46.3h-16.5l-9,22h34l9,23h31.5l-51.9-124H216.1z M395.8,107.7l29.6,43.3h-34.9
	l-25.8-38.8h-19.4V151h-30.5V27.9h58.1c9.5,0,17.7,1.2,24.2,3.5c6.4,2.3,11.7,5.5,15.8,9.7c7,6.8,10.6,16.2,10.6,28v0.4
	c0,9.3-2.2,17-6.7,23c-4.5,6.1-10.6,10.8-18.2,14L395.8,107.7z M392.7,71.3c0-5.9-2.1-10.5-6.1-13.5c-3.8-2.8-9.1-4.2-15.6-4.2
	h-25.7v35.7h25.9c6.7,0,12-1.6,15.7-4.7c3.9-3.2,5.8-7.6,5.8-13V71.3z M694.8,89.4c-3.9-2.9-8.8-5.4-14.5-7.4
	c-5.8-2.1-12.4-3.9-19.5-5.5c-4.5-1-8.2-2-11.1-2.9c-3.1-1-5.4-1.9-7.2-2.9c-2.1-1.1-3.5-2.4-4.4-3.9c-0.9-1.5-1.4-3.2-1.4-5.1v-0.4
	c0-3.1,1.5-5.8,4.2-7.9c2.6-1.9,6.2-2.9,11.1-2.9c6,0,12.3,1.1,18.7,3.3c5.6,2,11.2,4.7,16.6,8.3l15-21.2
	c-6.2-4.7-13.2-8.4-20.7-10.9c-8.3-2.8-17.9-4.2-28.6-4.2c-7.4,0-14.1,1-19.9,2.9c-5.8,1.9-10.8,4.6-14.8,8c-4,3.4-7.1,7.5-9.2,12.1
	c-2.1,4.6-3.2,9.8-3.2,15.4v0.4c0,6.1,1.2,11.3,3.4,15.3c2.3,4.1,5.5,7.6,9.5,10.3c4.1,2.8,9,5.2,14.6,7c5.8,1.9,12.1,3.6,18.8,5.1
	c4.5,1,8.1,2,10.9,2.9c2.9,1,5.3,2,7.1,3.1c2,1.2,3.4,2.5,4.3,3.9c0.8,1.4,1.3,3.1,1.3,4.8v0.4c0,3.7-1.7,6.6-5,8.6
	c-2.9,1.8-6.9,2.6-12.2,2.6c-14.6,0-28.5-4.8-41.2-14.4l-16.6,19.9c7.2,6.1,15.5,10.8,24.7,13.9c10,3.5,20.7,5.2,31.8,5.2
	c7.5,0,14.4-0.9,20.5-2.7c6-1.8,11.2-4.4,15.4-7.8c4.2-3.3,7.5-7.4,9.8-12.2c2.3-4.7,3.5-10.3,3.5-16.4v-0.4c0-5.5-1-10.4-3-14.3
	C701.6,95.6,698.6,92.2,694.8,89.4z M496.9,27.7l-52.9,124h31.5l36.7-91.3l18.1,46.3h-16.5l-9,22h34l9,23h31.5l-51.9-124H496.9z
	 M797.9,125.2c-3.2,0.8-6.4,1.2-9.7,1.2c-5,0-9.4-1-13.5-3c-4-1.8-7.5-4.5-10.4-7.8c-2.9-3.3-5.2-7.3-6.8-11.7
	c-1.6-4.6-2.4-9.3-2.4-14.2v-0.4c0-4.9,0.8-9.6,2.5-14.1c1.6-4.4,3.9-8.3,6.8-11.6c2.9-3.3,6.4-5.9,10.4-7.8c4.2-2,8.6-3,13.5-3
	c6.7,0,12.5,1.5,17.2,4.4c4,2.4,7.6,5.6,11.2,9.7l22.8-17.7c-2.3-3-5-5.9-7.8-8.5c-3.4-3.1-7.2-5.8-11.6-8.1
	c-4.2-2.3-8.8-4-14.1-5.3c-5-1.2-10.8-1.8-17.3-1.8c-9.3,0-18.1,1.7-26.1,4.9c-7.7,3.2-14.6,7.8-20.5,13.7
	c-5.7,5.7-10.3,12.6-13.6,20.4c-3.3,7.8-4.9,16.2-4.9,25.1V90c0,8.9,1.7,17.5,5,25.5c3.3,7.7,7.9,14.5,13.6,20.2
	c5.9,5.8,12.5,10.1,20.2,13.3c7.7,3.1,16,4.7,24.9,4.7c6.8,0,13-0.7,18.4-2c5.5-1.3,10.3-3.2,14.8-5.8c4.3-2.4,8.3-5.4,11.8-8.8
	c2.7-2.6,5.4-5.7,8.2-9.2l-22.7-16.2c-1.4,1.6-3,3.2-4.6,4.8c-2.1,2-4.3,3.7-6.8,5.2C803.5,123.3,800.8,124.5,797.9,125.2z
	 M987.2,64.5c3.3,7.7,5,16,5,24.8v0.4c0,8.8-1.7,17.1-5,24.9c-3.3,7.8-8,14.6-14,20.4c-6,5.8-13.1,10.4-21.2,13.8
	c-8.1,3.3-17,5-26.5,5c-9.5,0-18.4-1.7-26.5-5c-8.1-3.3-15.1-7.9-21-13.7c-5.8-5.7-10.5-12.5-13.8-20.3c-3.3-7.7-5-16-5-24.8v-0.4
	c0-8.8,1.7-17.1,5-24.9c3.3-7.8,8-14.6,14-20.4c6-5.8,13.1-10.4,21.2-13.8c8.1-3.3,17-5,26.5-5c9.5,0,18.4,1.7,26.5,5
	c8.1,3.3,15.1,7.9,21,13.7C979.2,50,983.8,56.8,987.2,64.5z M960.9,89.7c0-4.9-0.9-9.6-2.6-14.1c-1.7-4.4-4.1-8.4-7.3-11.8
	c-3.1-3.4-6.9-6.1-11.2-8.2c-4.4-2-9.2-3.1-14.5-3.1s-10.1,1-14.4,3c-4.3,2-8,4.6-11.1,8c-3.1,3.3-5.5,7.3-7.1,11.7
	c-1.6,4.4-2.4,9.1-2.4,14v0.4c0,4.9,0.9,9.7,2.6,14.1c1.7,4.4,4.1,8.4,7.2,11.8c3.1,3.4,6.8,6.2,11.2,8.2c4.3,2,9.2,3.1,14.5,3.1
	c5.2,0,10.1-1,14.4-3c4.3-2,8.1-4.7,11.1-8c3-3.3,5.4-7.3,7.1-11.7c1.7-4.4,2.6-9.2,2.6-14.1V89.7z M122.6,108.4l26.7,19
	c-3.1,4.1-6.4,8-10,11.5s-7.7,6.6-12.3,9.2c-4.6,2.6-9.7,4.6-15.4,6c-5.6,1.4-11.9,2.1-19,2.1c-9.1,0-17.7-1.6-25.8-4.9
	s-15-7.9-21-13.8c-5.9-5.9-10.6-12.9-14.1-21c-3.4-8.2-5.2-17-5.2-26.5v-0.4c0-9.3,1.7-18,5.1-26.1c3.4-8.1,8.1-15.2,14.1-21.2
	S58.8,31.5,67,28.1c8.3-3.4,17.3-5.1,27-5.1c6.6,0,12.6,0.6,17.9,1.9c5.4,1.3,10.3,3.1,14.7,5.5c4.5,2.4,8.5,5.2,12.1,8.5
	c3.6,3.3,6.8,6.9,9.6,10.8l-26.6,20.7c-3.7-4.6-7.7-8.3-12.1-11c-4.4-2.7-9.7-4-15.9-4c-4.5,0-8.6,0.9-12.4,2.7
	c-3.7,1.8-6.9,4.2-9.6,7.2c-2.7,3.1-4.8,6.7-6.3,10.8c-1.5,4.1-2.3,8.5-2.3,13.2v0.4c0,4.8,0.8,9.2,2.3,13.4
	c1.5,4.2,3.6,7.8,6.3,10.9c2.7,3.1,5.9,5.5,9.6,7.2c3.7,1.8,7.8,2.7,12.4,2.7c3.3,0,6.3-0.4,9.1-1.1c2.7-0.7,5.2-1.8,7.5-3.2
	c2.3-1.4,4.4-3,6.4-4.9S120.7,110.7,122.6,108.4z M118.4,116.5c-2.1,2-4.3,3.7-6.8,5.2c-2.6,1.6-5.3,2.8-8.2,3.5
	c-3.2,0.8-6.4,1.2-9.7,1.2c-5,0-9.4-1-13.5-3c-4-1.8-7.5-4.5-10.4-7.8c-2.9-3.3-5.2-7.3-6.8-11.7c-1.6-4.6-2.4-9.3-2.4-14.2v-0.4
	c0-4.9,0.8-9.6,2.5-14.1c1.6-4.4,3.9-8.3,6.8-11.6c2.9-3.3,6.4-5.9,10.4-7.8c4.2-2,8.6-3,13.5-3c6.7,0,12.5,1.5,17.2,4.4
	c4,2.4,7.6,5.6,11.2,9.7l22.8-17.7c-2.3-3-5-5.9-7.8-8.5c-3.4-3.1-7.2-5.8-11.6-8.1c-4.2-2.3-8.8-4-14.1-5.3
	c-5-1.2-10.8-1.8-17.3-1.8c-9.3,0-18.1,1.7-26.1,4.9c-7.7,3.2-14.6,7.8-20.5,13.7c-5.7,5.7-10.3,12.6-13.6,20.4
	C30.7,72.2,29,80.7,29,89.6V90c0,8.9,1.7,17.5,5,25.5c3.3,7.7,7.9,14.5,13.6,20.2c5.9,5.8,12.5,10.1,20.2,13.3
	c7.7,3.1,16,4.7,24.9,4.7c6.8,0,13-0.7,18.4-2c5.5-1.3,10.3-3.2,14.8-5.8c4.3-2.4,8.3-5.4,11.8-8.8c2.7-2.6,5.4-5.7,8.2-9.2
	L123,111.8C121.6,113.4,120,115,118.4,116.5z M248.4,25.2l54,129h-37l-9-23h-36l11-27h14.5l-14.5-37l-35,87h-37l55-129H248.4z
	 M298.6,151.7l-51.9-124h-30.7l-52.9,124h31.5l36.7-91.3l18.1,46.3h-16.5l-9,22h34l9,23H298.6z M399.6,108.8l30.6,44.7h-41
	l-25.8-38.8H363h-15.2v38.8h-35.5V25.4h60.6c9.9,0,18.2,1.2,25.1,3.7c6.8,2.4,12.4,5.9,16.7,10.2c7.6,7.3,11.3,17.3,11.3,29.8v0.4
	c0,9.9-2.4,18.1-7.1,24.5C414,100.5,407.6,105.4,399.6,108.8z M395.8,107.7l2.8-1.2c7.6-3.2,13.7-7.9,18.2-14c4.4-6,6.7-13.7,6.7-23
	v-0.4c0-11.8-3.6-21.2-10.6-28c-4-4.1-9.3-7.4-15.8-9.7c-6.5-2.3-14.7-3.5-24.2-3.5h-58.1V151h30.5v-38.8h19.4l25.8,38.8h34.9
	L395.8,107.7z M392.7,71.3v0.4c0,5.4-2,9.8-5.8,13c-3.7,3.1-9,4.7-15.7,4.7h-25.9V53.6H371c6.5,0,11.7,1.4,15.6,4.2
	C390.7,60.9,392.7,65.4,392.7,71.3z M390.2,71.3c0-5.1-1.7-8.9-5.1-11.4c-3.4-2.5-8.1-3.8-14.1-3.8h-23.2v30.7h23.4
	c6.1,0,10.8-1.4,14.1-4.1c3.3-2.7,4.9-6.4,4.9-11.1V71.3z M705.8,98.4c2.2,4.3,3.3,9.5,3.3,15.4v0.4c0,6.6-1.3,12.4-3.8,17.5
	c-2.5,5.1-6,9.5-10.5,13.1c-4.5,3.6-9.9,6.3-16.3,8.2c-6.3,1.9-13.4,2.8-21.2,2.8c-11.5,0-22.4-1.8-32.7-5.3
	c-10.3-3.6-19.4-8.9-27.4-16l19.8-23.7c12.8,10.2,26.7,15.4,41.5,15.4c4.8,0,8.4-0.8,10.9-2.3c2.5-1.5,3.8-3.7,3.8-6.5v-0.4
	c0-1.3-0.3-2.5-0.9-3.6c-0.6-1-1.7-2-3.4-3c-1.6-1-3.8-1.9-6.6-2.8c-2.7-0.9-6.3-1.9-10.7-2.8c-6.8-1.6-13.2-3.3-19-5.2
	c-5.9-1.9-11-4.3-15.3-7.3c-4.3-3-7.7-6.7-10.2-11.1c-2.5-4.4-3.8-10-3.8-16.5v-0.4c0-6,1.1-11.4,3.4-16.4c2.3-5,5.5-9.3,9.9-13
	c4.3-3.7,9.5-6.5,15.6-8.5c6.1-2,13-3,20.7-3c11,0,20.8,1.4,29.4,4.3c8.6,2.9,16.4,7.2,23.3,12.8l-17.8,25.1
	c-5.9-4.1-11.9-7.3-18-9.4c-6.2-2.1-12.1-3.2-17.8-3.2c-4.3,0-7.5,0.8-9.6,2.4c-2.1,1.6-3.2,3.5-3.2,5.8v0.4c0,1.5,0.3,2.7,1,3.8
	c0.7,1.1,1.8,2.1,3.5,3s3.9,1.8,6.8,2.7c2.9,0.9,6.5,1.9,10.9,2.8c7.3,1.6,13.9,3.4,19.9,5.6c5.9,2.1,10.9,4.7,15.1,7.8
	C700.5,90.4,703.6,94.1,705.8,98.4z M706.6,113.8c0-5.5-1-10.4-3-14.3c-2-3.9-5-7.4-8.8-10.2c-3.9-2.9-8.8-5.4-14.5-7.4
	c-5.8-2.1-12.4-3.9-19.5-5.5c-4.5-1-8.2-2-11.1-2.9c-3.1-1-5.4-1.9-7.2-2.9c-2.1-1.1-3.5-2.4-4.4-3.9c-0.9-1.5-1.4-3.2-1.4-5.1v-0.4
	c0-3.1,1.5-5.8,4.2-7.9c2.6-1.9,6.2-2.9,11.1-2.9c6,0,12.3,1.1,18.7,3.3c5.6,2,11.2,4.7,16.6,8.3l15-21.2
	c-6.2-4.7-13.2-8.4-20.7-10.9c-8.3-2.8-17.9-4.2-28.6-4.2c-7.4,0-14.1,1-19.9,2.9c-5.8,1.9-10.8,4.6-14.8,8c-4,3.4-7.1,7.5-9.2,12.1
	c-2.1,4.6-3.2,9.8-3.2,15.4v0.4c0,6.1,1.2,11.3,3.4,15.3c2.3,4.1,5.5,7.6,9.5,10.3c4.1,2.8,9,5.2,14.6,7c5.8,1.9,12.1,3.6,18.8,5.1
	c4.5,1,8.1,2,10.9,2.9c2.9,1,5.3,2,7.1,3.1c2,1.2,3.4,2.5,4.3,3.9c0.8,1.4,1.3,3.1,1.3,4.8v0.4c0,3.7-1.7,6.6-5,8.6
	c-2.9,1.8-6.9,2.6-12.2,2.6c-14.6,0-28.5-4.8-41.2-14.4l-16.6,19.9c7.2,6.1,15.5,10.8,24.7,13.9c10,3.5,20.7,5.2,31.8,5.2
	c7.5,0,14.4-0.9,20.5-2.7c6-1.8,11.2-4.4,15.4-7.8c4.2-3.3,7.5-7.4,9.8-12.2c2.3-4.7,3.5-10.3,3.5-16.4V113.8z M529.2,25.2l54,129
	h-37l-9-23h-36l11-27h14.5l-14.5-37l-35,87h-37l55-129H529.2z M579.4,151.7l-51.9-124h-30.7l-52.9,124h31.5l36.7-91.3l18.1,46.3
	h-16.5l-9,22h34l9,23H579.4z M817.1,108.4l26.7,19c-3.1,4.1-6.4,8-10,11.5c-3.6,3.5-7.7,6.6-12.3,9.2c-4.6,2.6-9.7,4.6-15.4,6
	c-5.6,1.4-11.9,2.1-19,2.1c-9.1,0-17.7-1.6-25.8-4.9s-15-7.9-21-13.8c-5.9-5.9-10.6-12.9-14.1-21c-3.4-8.2-5.2-17-5.2-26.5v-0.4
	c0-9.3,1.7-18,5.1-26.1c3.4-8.1,8.1-15.2,14.1-21.2s13.1-10.8,21.3-14.2c8.3-3.4,17.3-5.1,27-5.1c6.6,0,12.6,0.6,17.9,1.9
	c5.4,1.3,10.3,3.1,14.7,5.5c4.5,2.4,8.5,5.2,12.1,8.5c3.6,3.3,6.8,6.9,9.6,10.8l-26.6,20.7c-3.7-4.6-7.7-8.3-12.1-11
	c-4.4-2.7-9.7-4-15.9-4c-4.5,0-8.6,0.9-12.4,2.7c-3.7,1.8-6.9,4.2-9.6,7.2c-2.7,3.1-4.8,6.7-6.3,10.8c-1.5,4.1-2.3,8.5-2.3,13.2v0.4
	c0,4.8,0.8,9.2,2.3,13.4c1.5,4.2,3.6,7.8,6.3,10.9c2.7,3.1,5.9,5.5,9.6,7.2c3.7,1.8,7.8,2.7,12.4,2.7c3.3,0,6.3-0.4,9.1-1.1
	c2.7-0.7,5.2-1.8,7.5-3.2c2.3-1.4,4.4-3,6.4-4.9S815.2,110.7,817.1,108.4z M812.9,116.5c-2.1,2-4.3,3.7-6.8,5.2
	c-2.6,1.6-5.3,2.8-8.2,3.5c-3.2,0.8-6.4,1.2-9.7,1.2c-5,0-9.4-1-13.5-3c-4-1.8-7.5-4.5-10.4-7.8c-2.9-3.3-5.2-7.3-6.8-11.7
	c-1.6-4.6-2.4-9.3-2.4-14.2v-0.4c0-4.9,0.8-9.6,2.5-14.1c1.6-4.4,3.9-8.3,6.8-11.6c2.9-3.3,6.4-5.9,10.4-7.8c4.2-2,8.6-3,13.5-3
	c6.7,0,12.5,1.5,17.2,4.4c4,2.4,7.6,5.6,11.2,9.7l22.8-17.7c-2.3-3-5-5.9-7.8-8.5c-3.4-3.1-7.2-5.8-11.6-8.1
	c-4.2-2.3-8.8-4-14.1-5.3c-5-1.2-10.8-1.8-17.3-1.8c-9.3,0-18.1,1.7-26.1,4.9c-7.7,3.2-14.6,7.8-20.5,13.7
	c-5.7,5.7-10.3,12.6-13.6,20.4c-3.3,7.8-4.9,16.2-4.9,25.1V90c0,8.9,1.7,17.5,5,25.5c3.3,7.7,7.9,14.5,13.6,20.2
	c5.9,5.8,12.5,10.1,20.2,13.3c7.7,3.1,16,4.7,24.9,4.7c6.8,0,13-0.7,18.4-2c5.5-1.3,10.3-3.2,14.8-5.8c4.3-2.4,8.3-5.4,11.8-8.8
	c2.7-2.6,5.4-5.7,8.2-9.2l-22.7-16.2C816.1,113.4,814.5,115,812.9,116.5z M989.4,63.5c3.5,8.1,5.2,16.7,5.2,25.8v0.4
	c0,9.1-1.7,17.8-5.2,25.9c-3.5,8.1-8.3,15.2-14.5,21.2s-13.5,10.8-22,14.3c-8.4,3.5-17.6,5.2-27.4,5.2c-9.9,0-19-1.7-27.5-5.2
	c-8.4-3.5-15.7-8.2-21.8-14.2c-6.1-6-10.9-13-14.4-21c-3.5-8.1-5.2-16.7-5.2-25.8v-0.4c0-9.2,1.7-17.8,5.2-25.9
	c3.5-8.1,8.3-15.2,14.5-21.2c6.2-6,13.5-10.8,22-14.3c8.4-3.5,17.6-5.2,27.4-5.2c9.9,0,19,1.7,27.5,5.2c8.4,3.5,15.7,8.2,21.8,14.2
	C981.2,48.4,986,55.4,989.4,63.5z M992.2,89.3c0-8.8-1.7-17.1-5-24.8c-3.3-7.7-8-14.5-13.8-20.3c-5.8-5.7-12.9-10.3-21-13.7
	c-8.1-3.3-17-5-26.5-5c-9.5,0-18.4,1.7-26.5,5c-8.1,3.3-15.2,8-21.2,13.8c-6,5.8-10.7,12.6-14,20.4c-3.3,7.8-5,16.1-5,24.9V90
	c0,8.8,1.7,17.1,5,24.8c3.3,7.7,8,14.5,13.8,20.3c5.8,5.7,12.9,10.3,21,13.7c8.1,3.3,17,5,26.5,5c9.5,0,18.4-1.7,26.5-5
	c8.1-3.3,15.2-8,21.2-13.8c6-5.8,10.7-12.6,14-20.4c3.3-7.8,5-16.1,5-24.9V89.3z M958.4,75.6c1.7,4.4,2.6,9.2,2.6,14.1V90
	c0,4.9-0.9,9.7-2.6,14.1c-1.7,4.4-4.1,8.3-7.1,11.7c-3,3.4-6.8,6-11.1,8c-4.3,2-9.2,3-14.4,3c-5.2,0-10.1-1-14.5-3.1
	c-4.3-2-8.1-4.8-11.2-8.2c-3.1-3.4-5.5-7.3-7.2-11.8c-1.7-4.4-2.6-9.1-2.6-14.1v-0.4c0-4.9,0.8-9.6,2.4-14c1.6-4.4,4-8.4,7.1-11.7
	c3.1-3.3,6.8-6,11.1-8c4.3-2,9.1-3,14.4-3s10.1,1,14.5,3.1c4.3,2,8.1,4.8,11.2,8.2C954.2,67.2,956.7,71.2,958.4,75.6z M958.4,89.7
	c0-4.6-0.8-9-2.4-13.2c-1.6-4.1-3.9-7.8-6.8-11c-2.9-3.2-6.4-5.7-10.5-7.6c-4-1.9-8.5-2.8-13.4-2.8c-4.9,0-9.3,0.9-13.3,2.7
	c-4,1.8-7.4,4.3-10.3,7.4s-5.1,6.7-6.6,10.9c-1.5,4.1-2.3,8.5-2.3,13.2v0.4c0,4.6,0.8,9,2.4,13.2c1.6,4.1,3.8,7.8,6.7,11
	c2.9,3.2,6.3,5.7,10.4,7.6c4,1.9,8.5,2.8,13.4,2.8c4.9,0,9.4-0.9,13.4-2.7s7.5-4.3,10.3-7.4c2.8-3.1,5-6.7,6.6-10.9
	c1.6-4.1,2.4-8.5,2.4-13.2V89.7z"/>
</svg>
