<?xml version="1.0" encoding="utf-8"?>
<!-- Generator: Adobe Illustrator 21.1.0, SVG Export Plug-In . SVG Version: 6.00 Build 0)  -->
<svg version="1.1" id="Calque_3" xmlns="http://www.w3.org/2000/svg" xmlns:xlink="http://www.w3.org/1999/xlink" x="0px" y="0px"
	 viewBox="0 0 272.1 252.9" style="enable-background:new 0 0 272.1 252.9;" xml:space="preserve">
<style type="text/css">
	.st0{fill:#F20C0C;}
	.st1{fill:#ED1C24;}
	.st2{fill:#FFFFFF;}
</style>
<path class="st0" d="M18.7,126.1c-2.6,0-5-0.5-7.3-1.4c-2.3-0.9-4.2-2.2-5.9-3.9c-1.7-1.7-3-3.6-4-5.9c-1-2.3-1.5-4.8-1.5-7.5v-0.1
	c0-2.6,0.5-5.1,1.4-7.4c1-2.3,2.3-4.3,4-6s3.7-3,6-4c2.3-1,4.9-1.4,7.6-1.4c1.9,0,3.5,0.2,5,0.5c1.5,0.4,2.9,0.9,4.1,1.5
	c1.3,0.7,2.4,1.5,3.4,2.4c1,0.9,1.9,1.9,2.7,3l-7.5,5.8c-1-1.3-2.2-2.3-3.4-3.1c-1.2-0.8-2.7-1.1-4.5-1.1c-1.3,0-2.4,0.3-3.5,0.8
	c-1,0.5-1.9,1.2-2.7,2c-0.8,0.9-1.4,1.9-1.8,3c-0.4,1.2-0.6,2.4-0.6,3.7v0.1c0,1.4,0.2,2.6,0.6,3.8c0.4,1.2,1,2.2,1.8,3.1
	c0.8,0.9,1.7,1.5,2.7,2c1,0.5,2.2,0.8,3.5,0.8c0.9,0,1.8-0.1,2.6-0.3c0.8-0.2,1.5-0.5,2.1-0.9c0.6-0.4,1.2-0.8,1.8-1.4
	c0.6-0.5,1.1-1.1,1.7-1.8l7.5,5.4c-0.9,1.2-1.8,2.3-2.8,3.2c-1,1-2.2,1.9-3.5,2.6c-1.3,0.7-2.7,1.3-4.3,1.7
	C22.5,125.9,20.7,126.1,18.7,126.1z"/>
<path class="st1" d="M67.7,125.5l-2.5-6.5H55l3.1-7.6h4.1L58.1,101l-9.9,24.5H37.8l15.5-36.3h9.6l15.2,36.3H67.7z"/>
<path class="st0" d="M81.2,89.3h17.1c2.8,0,5.1,0.3,7.1,1c1.9,0.7,3.5,1.6,4.7,2.9c2.1,2.1,3.2,4.9,3.2,8.4v0.1c0,2.8-0.7,5.1-2,6.9
	c-1.3,1.8-3.1,3.2-5.4,4.2l8.6,12.6h-11.5l-7.3-10.9h-0.1h-4.3v10.9h-10V89.3z M97.8,106.6c1.7,0,3-0.4,4-1.2
	c0.9-0.8,1.4-1.8,1.4-3.1v-0.1c0-1.4-0.5-2.5-1.4-3.2c-1-0.7-2.3-1.1-4-1.1h-6.5v8.7H97.8z"/>
<path class="st0" d="M177.8,126c-3.2,0-6.3-0.5-9.2-1.5c-2.9-1-5.5-2.5-7.7-4.5l5.6-6.7c3.6,2.9,7.5,4.3,11.7,4.3
	c1.3,0,2.4-0.2,3.1-0.6c0.7-0.4,1.1-1,1.1-1.8v-0.1c0-0.4-0.1-0.7-0.3-1c-0.2-0.3-0.5-0.6-1-0.8c-0.5-0.3-1.1-0.5-1.9-0.8
	c-0.8-0.3-1.8-0.5-3-0.8c-1.9-0.4-3.7-0.9-5.4-1.5c-1.6-0.5-3.1-1.2-4.3-2.1c-1.2-0.8-2.2-1.9-2.9-3.1c-0.7-1.3-1.1-2.8-1.1-4.7
	v-0.1c0-1.7,0.3-3.2,1-4.6c0.6-1.4,1.6-2.6,2.8-3.7c1.2-1,2.7-1.8,4.4-2.4c1.7-0.6,3.7-0.8,5.8-0.8c3.1,0,5.8,0.4,8.3,1.2
	c2.4,0.8,4.6,2,6.6,3.6l-5,7.1c-1.6-1.2-3.3-2.1-5.1-2.7c-1.7-0.6-3.4-0.9-5-0.9c-1.2,0-2.1,0.2-2.7,0.7c-0.6,0.4-0.9,1-0.9,1.6v0.1
	c0,0.4,0.1,0.8,0.3,1.1c0.2,0.3,0.5,0.6,1,0.8c0.5,0.3,1.1,0.5,1.9,0.8c0.8,0.3,1.8,0.5,3.1,0.8c2.1,0.4,3.9,1,5.6,1.6
	c1.7,0.6,3.1,1.3,4.3,2.2c1.2,0.9,2.1,1.9,2.7,3.1c0.6,1.2,0.9,2.7,0.9,4.3v0.1c0,1.9-0.4,3.5-1.1,4.9c-0.7,1.4-1.7,2.7-3,3.7
	c-1.3,1-2.8,1.8-4.6,2.3C182,125.7,180,126,177.8,126z"/>
<path class="st0" d="M252.6,126.1c-2.8,0-5.4-0.5-7.7-1.5c-2.4-1-4.4-2.3-6.1-4c-1.7-1.7-3.1-3.7-4-5.9c-1-2.3-1.5-4.7-1.5-7.3v-0.1
	c0-2.6,0.5-5,1.5-7.3c1-2.3,2.3-4.3,4.1-6c1.8-1.7,3.8-3,6.2-4c2.4-1,4.9-1.5,7.7-1.5c2.8,0,5.4,0.5,7.7,1.5s4.4,2.3,6.1,4
	c1.7,1.7,3.1,3.7,4,5.9s1.5,4.7,1.5,7.3v0.1c0,2.6-0.5,5-1.5,7.3c-1,2.3-2.3,4.3-4.1,6s-3.8,3-6.2,4
	C258,125.6,255.4,126.1,252.6,126.1z M252.7,117.1c1.4,0,2.6-0.3,3.8-0.8c1.1-0.5,2.1-1.2,2.9-2.1c0.8-0.9,1.4-1.9,1.9-3.1
	c0.4-1.2,0.7-2.4,0.7-3.7v-0.1c0-1.3-0.2-2.5-0.7-3.7c-0.4-1.2-1.1-2.2-1.9-3.1c-0.8-0.9-1.8-1.6-2.9-2.1c-1.1-0.5-2.4-0.8-3.8-0.8
	c-1.4,0-2.6,0.3-3.7,0.8c-1.1,0.5-2.1,1.2-2.9,2.1s-1.4,1.9-1.9,3.1c-0.4,1.2-0.6,2.4-0.6,3.7v0.1c0,1.3,0.2,2.5,0.7,3.7
	c0.4,1.2,1.1,2.2,1.9,3.1c0.8,0.9,1.8,1.6,2.9,2.1C250.1,116.8,251.3,117.1,252.7,117.1z"/>
<path class="st1" d="M147.4,125.5l-2.5-6.5h-10.1l3.1-7.6h4.1l-4.1-10.4l-9.9,24.5h-10.4L133,89.2h9.6l15.2,36.3H147.4z"/>
<path class="st2" d="M148.1,124.5l-2.5-6.5h-9.3l2.3-5.6h4.9l-5.5-14.1l-10.5,26.2H119l14.6-34.3h8.2l14.4,34.3H148.1z"/>
<path class="st0" d="M214.1,126.1c-2.6,0-5-0.5-7.3-1.4c-2.3-0.9-4.2-2.2-5.9-3.9c-1.7-1.7-3-3.6-4-5.9c-1-2.3-1.5-4.8-1.5-7.5v-0.1
	c0-2.6,0.5-5.1,1.4-7.4c1-2.3,2.3-4.3,4-6c1.7-1.7,3.7-3,6-4c2.3-1,4.9-1.4,7.6-1.4c1.9,0,3.5,0.2,5,0.5c1.5,0.4,2.9,0.9,4.1,1.5
	c1.3,0.7,2.4,1.5,3.4,2.4c1,0.9,1.9,1.9,2.7,3l-7.5,5.8c-1-1.3-2.2-2.3-3.4-3.1c-1.2-0.8-2.7-1.1-4.5-1.1c-1.3,0-2.4,0.3-3.5,0.8
	c-1,0.5-1.9,1.2-2.7,2c-0.8,0.9-1.4,1.9-1.8,3s-0.6,2.4-0.6,3.7v0.1c0,1.4,0.2,2.6,0.6,3.8c0.4,1.2,1,2.2,1.8,3.1
	c0.8,0.9,1.7,1.5,2.7,2c1,0.5,2.2,0.8,3.5,0.8c0.9,0,1.8-0.1,2.6-0.3c0.8-0.2,1.5-0.5,2.1-0.9c0.6-0.4,1.2-0.8,1.8-1.4
	c0.6-0.5,1.1-1.1,1.7-1.8l7.5,5.4c-0.9,1.2-1.8,2.3-2.8,3.2s-2.2,1.9-3.5,2.6c-1.3,0.7-2.7,1.3-4.3,1.7
	C217.9,125.9,216.1,126.1,214.1,126.1z"/>
</svg>
