<?xml version="1.0" encoding="utf-8"?>
<!-- Generator: Adobe Illustrator 21.1.0, SVG Export Plug-In . SVG Version: 6.00 Build 0)  -->
<svg version="1.1" id="Calque_2" xmlns="http://www.w3.org/2000/svg" xmlns:xlink="http://www.w3.org/1999/xlink" x="0px" y="0px"
	 viewBox="0 0 1021 174.9" style="enable-background:new 0 0 1021 174.9;" xml:space="preserve">
<style type="text/css">
	.st0{fill:#F20C0C;}
</style>
<path class="st0" d="M123.5,115.1l18.8,13.3c-2.1,2.6-4.2,4.9-6.3,6.9c-3.4,3.3-7.2,6.1-11.3,8.4c-4.3,2.4-8.9,4.2-14.2,5.5
	c-5.2,1.3-11.2,2-17.8,2c-8.5,0-16.5-1.5-23.9-4.5s-13.7-7.2-19.4-12.7c-5.4-5.4-9.8-12-13-19.4c-3.2-7.7-4.8-16-4.8-24.6v-0.4
	c0-8.6,1.6-16.7,4.7-24.2c3.2-7.5,7.5-14.1,13-19.6c5.6-5.6,12.2-10,19.7-13.1c7.7-3.1,16.1-4.7,25.1-4.7c6.3,0,12,0.6,16.7,1.8
	c5.1,1.2,9.5,2.9,13.5,5.1c4.2,2.2,7.8,4.8,11.1,7.8c2.1,2,4.1,4,6,6.2l-18.9,14.7c-3.2-3.4-6.6-6.2-10.2-8.4
	c-5.1-3.1-11.4-4.7-18.5-4.7c-5.2,0-10.1,1.1-14.6,3.2c-4.3,2.1-8,4.9-11.2,8.4c-3.1,3.5-5.5,7.7-7.2,12.4
	c-1.7,4.7-2.6,9.7-2.6,14.9v0.4c0,5.3,0.8,10.2,2.6,15.1c1.7,4.7,4.1,8.9,7.2,12.5s6.9,6.4,11.2,8.4c4.4,2.1,9.2,3.2,14.5,3.2
	c3.6,0,6.9-0.4,10.4-1.3c3.1-0.8,6-2.1,8.8-3.8c2.6-1.6,5-3.4,7.2-5.5C121.4,117.3,122.4,116.2,123.5,115.1z M245.1,30.2l49.8,119
	h-26.1l-9-23h-32l6.9-17h18.5l-21.8-55.5L193,149.2h-26l50.7-119C217.7,30.2,245.1,30.2,245.1,30.2z M411.4,43
	c-3.9-3.9-8.9-6.9-14.8-9c-6.4-2.3-14-3.4-23.4-3.4h-55.6v118.1H343v-38.8h23.4l25.8,38.8H421l-28.7-41.9l5.6-2.4
	c7.3-3.1,12.9-7.4,17.1-13.2c4.1-5.5,6.1-12.8,6.1-21.5v-0.4C421.2,58,418,49.4,411.4,43L411.4,43z M395.4,71.9
	c0,6.3-2.3,11.3-6.7,15c-4.2,3.5-10.1,5.2-17.3,5.2h-5V92H343V51.3h28.2c7,0,12.8,1.6,17.1,4.8c3.3,2.4,7.1,7,7.1,15.4L395.4,71.9
	L395.4,71.9z M526.1,30.2l49.8,119h-26.1l-9-23h-32l6.9-17h18.5l-21.8-55.5L474,149.2h-26l50.7-119
	C498.7,30.2,526.1,30.2,526.1,30.2z M700.6,100.4c1.8,3.6,2.8,8,2.8,13.1v0.4c0,5.8-1.1,10.8-3.3,15.3c-2.2,4.5-5.3,8.3-9.1,11.4
	c-4,3.2-8.8,5.6-14.6,7.3c-6,1.8-12.7,2.7-19.9,2.7c-10.8,0-21.3-1.7-31.1-5c-8.2-2.9-15.4-6.8-22-11.9l13.5-16.2
	c12.7,9,26.3,13.5,40.7,13.5c5.7,0,10.1-1,13.5-3c4-2.4,6.2-6.2,6.2-10.8v-0.4c0-2.1-0.5-4.2-1.5-6l-0.1-0.2
	c-1.1-1.8-2.7-3.3-5.1-4.7c-1.9-1.2-4.3-2.2-7.6-3.3c-3.3-1.1-7.1-2.1-11.2-2.9c-7.3-1.7-13.4-3.4-18.5-5.1
	c-5.6-1.8-10.3-4.1-14-6.6c-3.7-2.6-6.6-5.7-8.7-9.5c-2.1-3.7-3.1-8.4-3.1-14V64c0-5.3,1-10,2.9-14.3c2-4.4,4.8-8.1,8.6-11.3
	c3.8-3.2,8.3-5.7,13.9-7.5c5.6-1.8,12-2.8,19.1-2.8c10.5,0,19.9,1.4,27.8,4c6.5,2.2,12.5,5.2,18,9.1l-12.2,17.2
	c-5.1-3.1-10.1-5.6-15.1-7.3c-6.9-2.3-13.2-3.5-19.4-3.5c-5.5,0-9.6,1.1-12.6,3.4c-4.3,3.3-5.2,7.1-5.2,9.8v0.4
	c0,2.5,0.6,4.6,1.8,6.5s3,3.4,5.3,4.7c1.9,1,4.4,2.1,7.7,3.1c3.8,1.2,7.5,2.1,11.3,2.9c7.5,1.6,13.8,3.4,19.3,5.4
	c5.3,1.9,10,4.3,13.8,7.1C696.1,93.6,698.8,96.7,700.6,100.4z M817.9,115.1l18.8,13.3c-2.1,2.6-4.2,4.9-6.3,6.9
	c-3.4,3.3-7.1,6.1-11.3,8.4c-4.3,2.4-8.9,4.2-14.2,5.5c-5.2,1.3-11.2,2-17.8,2c-8.5,0-16.5-1.5-23.9-4.5s-13.7-7.2-19.4-12.7
	c-5.4-5.4-9.8-12-13-19.4c-3.2-7.7-4.8-16-4.8-24.6v-0.4c0-8.6,1.6-16.7,4.7-24.2c3.2-7.5,7.5-14.1,13-19.6
	c5.6-5.6,12.2-10,19.7-13.1c7.7-3.1,16.1-4.7,25.1-4.7c6.3,0,12,0.6,16.7,1.8c5.1,1.2,9.5,2.9,13.5,5.1c4.2,2.2,7.8,4.8,11.1,7.8
	c2.1,2,4.1,4,6,6.2l-18.9,14.7c-3.2-3.4-6.6-6.2-10.2-8.4c-5.1-3.1-11.4-4.7-18.5-4.7c-5.2,0-10.1,1.1-14.6,3.2
	c-4.3,2.1-8,4.9-11.2,8.4c-3.1,3.5-5.5,7.7-7.2,12.4c-1.7,4.7-2.6,9.7-2.6,14.9v0.4c0,5.3,0.8,10.2,2.6,15.1
	c1.7,4.7,4.1,8.9,7.2,12.5c3.1,3.6,6.9,6.4,11.2,8.4c4.4,2.1,9.2,3.2,14.5,3.2c3.6,0,6.9-0.4,10.4-1.3c3.1-0.8,6-2.1,8.8-3.8
	c2.6-1.6,5-3.4,7.2-5.5C815.8,117.3,816.8,116.2,817.9,115.1z M984.6,65.5c-3.2-7.4-7.7-13.9-13.3-19.4c-5.5-5.4-12.3-9.9-20.2-13.1
	s-16.2-4.8-25.6-4.8c-9.2,0-17.8,1.6-25.5,4.8c-7.8,3.2-14.6,7.7-20.4,13.3c-5.6,5.4-10.1,12-13.4,19.6c-3.2,7.5-4.8,15.3-4.8,23.9
	v0.4c0,8.4,1.6,16.5,4.8,23.8c3.2,7.4,7.7,13.9,13.3,19.4c5.5,5.4,12.3,9.9,20.2,13.1c7.9,3.2,16.2,4.8,25.6,4.8
	c9.2,0,17.8-1.6,25.5-4.8c7.8-3.2,14.6-7.7,20.4-13.3c5.6-5.4,10.1-12,13.4-19.6c3.2-7.4,4.8-15.4,4.8-23.9v-0.4
	C989.4,80.9,987.8,72.8,984.6,65.5z M963.2,90.1c0,5.3-0.9,10.4-2.7,15c-1.8,4.7-4.3,8.9-7.5,12.4c-3.3,3.6-7.3,6.5-12,8.6
	c-4.6,2.1-9.8,3.1-15.5,3.1c-5.4,0-10.5-1.1-15.4-3.2H910c-4.7-2.2-8.6-5-12-8.8c-3.2-3.5-5.8-7.8-7.7-12.5c-1.8-4.8-2.7-9.8-2.7-15
	v-0.4c0-5.2,0.9-10.2,2.6-14.9c1.7-4.7,4.3-9,7.6-12.6c3.4-3.7,7.4-6.5,11.9-8.5c4.6-2.1,9.8-3.1,15.4-3.1c5.7,0,11,1.1,15.5,3.3
	c4.7,2.2,8.8,5.1,12.1,8.8c3.3,3.7,5.9,7.9,7.8,12.5c1.8,4.8,2.7,9.8,2.7,15L963.2,90.1L963.2,90.1z"/>
</svg>
