<?xml version="1.0" encoding="utf-8"?>
<!-- Generator: Adobe Illustrator 21.0.0, SVG Export Plug-In . SVG Version: 6.00 Build 0)  -->
<svg version="1.1" id="Calque_2" xmlns="http://www.w3.org/2000/svg" xmlns:xlink="http://www.w3.org/1999/xlink" x="0px" y="0px"
	 viewBox="0 0 588.8 91.2" style="enable-background:new 0 0 588.8 91.2;" xml:space="preserve">
<style type="text/css">
	.st0{fill:#FF0000;}
</style>
<path class="st0" d="M0,1.5h32.9c6.9,0,13.2,1.1,19,3.3c5.8,2.2,10.7,5.3,14.9,9.3c4.2,3.9,7.4,8.6,9.6,13.9
	c2.3,5.3,3.4,11.1,3.4,17.3v0.3c0,6.2-1.1,12-3.4,17.4c-2.3,5.4-5.5,10-9.6,14c-4.2,3.9-9.1,7.1-14.9,9.3c-5.8,2.3-12.1,3.4-19,3.4
	H0V1.5z M32.8,75.7c4.6,0,8.8-0.7,12.6-2.2c3.8-1.5,7-3.5,9.6-6.2s4.7-5.8,6.2-9.5c1.5-3.7,2.2-7.7,2.2-12v-0.3
	c0-4.3-0.7-8.3-2.2-12c-1.5-3.7-3.5-6.9-6.2-9.6c-2.6-2.7-5.9-4.7-9.6-6.3c-3.8-1.5-8-2.3-12.6-2.3H15.4v60.2H32.8z"/>
<path class="st0" d="M120.5,1.5h65.3v14h-49.9v22.7h44.2v14h-44.2v23.6h50.5v14h-65.9V1.5z"/>
<path class="st0" d="M257.8,91c-6.8,0-13.3-1.2-19.5-3.5c-6.2-2.3-12-5.9-17.3-10.6l9.3-11.1c4.3,3.7,8.6,6.5,13,8.5
	c4.4,2,9.3,3,14.9,3c4.8,0,8.6-1,11.4-3c2.8-2,4.2-4.7,4.2-8.1v-0.3c0-1.6-0.3-3-0.8-4.2c-0.5-1.2-1.6-2.4-3-3.5
	c-1.5-1.1-3.5-2.1-6.1-3c-2.6-0.9-5.9-1.8-10-2.8c-4.7-1.1-8.9-2.3-12.6-3.7c-3.7-1.4-6.7-3.1-9.2-5c-2.5-2-4.4-4.4-5.7-7.2
	c-1.3-2.9-2-6.3-2-10.3v-0.3c0-3.8,0.7-7.2,2.2-10.4s3.6-5.8,6.2-8.1c2.6-2.2,5.8-4,9.5-5.2c3.7-1.3,7.7-1.9,12.1-1.9
	c6.5,0,12.3,0.9,17.5,2.8c5.2,1.9,10,4.6,14.6,8.3l-8.3,11.7c-4-2.9-8-5.2-12-6.7c-3.9-1.6-7.9-2.3-12-2.3c-4.5,0-8.1,1-10.6,3
	c-2.5,2-3.8,4.5-3.8,7.4v0.3c0,1.7,0.3,3.2,0.9,4.5c0.6,1.3,1.7,2.5,3.2,3.5c1.6,1.1,3.7,2,6.4,3c2.7,0.9,6.2,1.9,10.4,2.9
	c4.6,1.2,8.7,2.5,12.3,3.9c3.6,1.4,6.5,3.2,8.9,5.2c2.4,2.1,4.1,4.5,5.4,7.2c1.2,2.7,1.8,5.9,1.8,9.5v0.3c0,4.1-0.8,7.8-2.3,11.1
	c-1.5,3.3-3.7,6-6.4,8.3c-2.7,2.3-6.1,4-9.9,5.2C266.7,90.4,262.4,91,257.8,91z"/>
<path class="st0" d="M330.2,1.5h15.4v88.2h-15.4V1.5z"/>
<path class="st0" d="M433.1,91.2c-6.9,0-13.1-1.2-18.8-3.5c-5.6-2.3-10.4-5.5-14.4-9.6c-4-4.1-7.1-8.9-9.3-14.4
	c-2.2-5.5-3.3-11.5-3.3-18v-0.3c0-6.1,1.1-12,3.4-17.5c2.2-5.5,5.4-10.4,9.5-14.6c4.1-4.2,8.9-7.5,14.5-9.9
	c5.6-2.4,11.7-3.7,18.3-3.7c3.9,0,7.4,0.3,10.5,0.8c3.1,0.5,6.1,1.3,8.8,2.3c2.7,1,5.2,2.2,7.6,3.7c2.4,1.5,4.7,3.2,7,5.1L457,23.7
	c-1.7-1.4-3.4-2.7-5.2-3.9c-1.8-1.2-3.6-2.2-5.5-3c-1.9-0.8-4.1-1.4-6.4-1.9c-2.3-0.5-4.9-0.7-7.6-0.7c-4,0-7.8,0.8-11.3,2.5
	c-3.5,1.7-6.5,3.9-9.1,6.8c-2.6,2.8-4.6,6.1-6,9.9c-1.5,3.8-2.2,7.8-2.2,12v0.3c0,4.5,0.7,8.8,2.1,12.6c1.4,3.9,3.5,7.2,6.1,10
	c2.6,2.8,5.8,5,9.4,6.6c3.6,1.6,7.7,2.4,12.3,2.4c4.2,0,8.1-0.6,11.8-1.8c3.6-1.2,6.8-2.8,9.5-4.9V53.9h-22.6V40.4h37.5v37
	c-2.2,1.8-4.6,3.6-7.2,5.3c-2.6,1.7-5.5,3.1-8.6,4.4c-3.1,1.3-6.4,2.2-9.9,3C440.6,90.9,436.9,91.2,433.1,91.2z"/>
<path class="st0" d="M511.9,1.5h14.3l47.2,61v-61h15.4v88.2h-13L527.3,27v62.7h-15.4V1.5z"/>
</svg>
