<?xml version="1.0" encoding="utf-8"?>
<!-- Generator: Adobe Illustrator 21.1.0, SVG Export Plug-In . SVG Version: 6.00 Build 0)  -->
<svg version="1.1" id="Calque_2" xmlns="http://www.w3.org/2000/svg" xmlns:xlink="http://www.w3.org/1999/xlink" x="0px" y="0px"
	 viewBox="0 0 506 253" style="enable-background:new 0 0 506 253;" xml:space="preserve">
<style type="text/css">
	.st0{fill:#FF0000;}
</style>
<path id="logo_x26_web" class="st0" d="M105,7.7h2v9.8h6.1v1.9H105V7.7z M125.5,19.6c-0.7,0-1.3-0.1-1.9-0.3c-0.6-0.2-1.1-0.6-1.4-1
	c-0.4-0.4-0.8-0.9-1-1.4s-0.3-1.1-0.3-1.8l0,0c0-0.7,0.1-1.2,0.3-1.8s0.6-1,1-1.4s0.9-0.8,1.4-1c0.6-0.2,1.2-0.3,1.9-0.3
	s1.3,0.1,1.9,0.3c0.6,0.2,1.1,0.6,1.4,1s0.8,0.9,1,1.4c0.2,0.6,0.3,1.1,0.3,1.8l0,0c0,0.7-0.1,1.2-0.3,1.8c-0.2,0.6-0.6,1-1,1.4
	s-0.9,0.8-1.4,1C126.8,19.5,126.1,19.6,125.5,19.6z M125.5,17.8c0.4,0,0.8-0.1,1.1-0.2s0.6-0.3,0.9-0.6c0.2-0.2,0.4-0.6,0.6-0.9
	c0.1-0.3,0.2-0.7,0.2-1.1l0,0c0-0.3-0.1-0.8-0.2-1.1c-0.1-0.3-0.3-0.7-0.6-0.9c-0.2-0.2-0.6-0.4-0.9-0.6c-0.3-0.1-0.7-0.2-1.1-0.2
	s-0.8,0.1-1.1,0.2s-0.6,0.3-0.9,0.6c-0.2,0.2-0.4,0.6-0.6,0.9c-0.1,0.3-0.2,0.7-0.2,1.1l0,0c0,0.4,0.1,0.8,0.2,1.1
	c0.1,0.3,0.3,0.7,0.6,0.9c0.2,0.2,0.6,0.4,0.9,0.7C124.8,17.8,125.1,17.8,125.5,17.8z M142.3,22.1c-1.4,0-2.8-0.3-3.9-1l0.8-1.6
	c0.4,0.3,1,0.6,1.4,0.7s1.1,0.2,1.7,0.2c0.9,0,1.6-0.2,2.1-0.7c0.4-0.4,0.7-1.1,0.7-2V17c-0.3,0.4-0.8,0.9-1.3,1.1
	c-0.4,0.3-1.1,0.4-1.8,0.4c-0.6,0-1-0.1-1.6-0.3c-0.6-0.2-0.9-0.4-1.2-0.8c-0.3-0.3-0.7-0.8-0.9-1.3S138,15,138,14.3l0,0
	c0-0.7,0.1-1.2,0.3-1.8s0.6-1,0.9-1.3c0.3-0.3,0.8-0.7,1.3-0.8s1-0.3,1.4-0.3c0.8,0,1.3,0.1,1.9,0.4s0.9,0.7,1.2,1.1v-1.3h2v7
	c0,1.4-0.3,2.6-1.1,3.3c-0.4,0.4-0.9,0.7-1.6,0.9C143.8,22,143.1,22.1,142.3,22.1z M142.5,17c0.3,0,0.7-0.1,1-0.2s0.6-0.3,0.8-0.6
	c0.2-0.2,0.4-0.4,0.6-0.8c0.1-0.3,0.2-0.7,0.2-1l0,0c0-0.3-0.1-0.7-0.2-1s-0.3-0.6-0.6-0.8c-0.2-0.2-0.6-0.3-0.8-0.6
	c-0.3-0.1-0.7-0.2-1-0.2s-0.7,0.1-1,0.2s-0.6,0.3-0.8,0.4c-0.2,0.2-0.4,0.4-0.6,0.8c-0.1,0.3-0.2,0.7-0.2,1l0,0c0,0.3,0.1,0.7,0.2,1
	s0.3,0.6,0.6,0.8c0.2,0.2,0.4,0.3,0.8,0.6C141.8,16.9,142.1,17,142.5,17z M159.9,19.6c-0.7,0-1.3-0.1-1.9-0.3
	c-0.6-0.2-1.1-0.6-1.4-1c-0.4-0.4-0.8-0.9-1-1.4s-0.3-1.1-0.3-1.8l0,0c0-0.7,0.1-1.2,0.3-1.8s0.6-1,1-1.4s0.9-0.8,1.4-1
	c0.6-0.2,1.2-0.3,1.9-0.3s1.3,0.1,1.9,0.3c0.6,0.2,1.1,0.6,1.4,1c0.3,0.4,0.8,0.9,1,1.4s0.3,1.1,0.3,1.8l0,0c0,0.7-0.1,1.2-0.3,1.8
	s-0.6,1-1,1.4s-0.9,0.8-1.4,1C161.2,19.5,160.5,19.6,159.9,19.6z M159.9,17.8c0.4,0,0.8-0.1,1.1-0.2s0.6-0.3,0.9-0.6
	c0.2-0.2,0.4-0.6,0.6-0.9c0.1-0.3,0.2-0.7,0.2-1.1l0,0c0-0.3-0.1-0.8-0.2-1.1c-0.1-0.3-0.3-0.7-0.6-0.9c-0.2-0.2-0.6-0.4-0.9-0.6
	c-0.3-0.1-0.7-0.2-1.1-0.2c-0.4,0-0.8,0.1-1.1,0.2s-0.6,0.3-0.9,0.6c-0.2,0.2-0.4,0.6-0.6,0.9c-0.1,0.3-0.2,0.7-0.2,1.1l0,0
	c0,0.4,0.1,0.8,0.2,1.1c0.1,0.3,0.3,0.7,0.6,0.9s0.6,0.4,0.9,0.7C159.2,17.8,159.5,17.8,159.9,17.8z M190.7,18
	c-0.6,0.4-1,0.9-1.7,1.1c-0.6,0.2-1.2,0.4-2,0.4c-0.6,0-1-0.1-1.6-0.2c-0.4-0.1-0.9-0.3-1.2-0.7c-0.3-0.3-0.6-0.7-0.8-1.1
	s-0.3-0.9-0.3-1.3l0,0c0-0.8,0.2-1.4,0.7-1.9c0.4-0.6,1-1,1.9-1.3c-0.3-0.4-0.6-0.8-0.8-1.2c-0.1-0.3-0.2-0.8-0.2-1.2l0,0
	c0-0.3,0.1-0.8,0.2-1.1c0.1-0.3,0.3-0.7,0.7-0.9c0.3-0.2,0.7-0.4,1-0.7c0.4-0.1,0.9-0.2,1.4-0.2c0.4,0,0.9,0.1,1.2,0.2
	s0.7,0.3,1,0.6c0.2,0.2,0.4,0.6,0.7,0.9c0.1,0.3,0.2,0.7,0.2,1.1l0,0c0,0.8-0.2,1.4-0.7,1.9c-0.4,0.4-1.1,0.9-1.9,1.1l2,2
	c0.2-0.3,0.4-0.7,0.7-1.1c0.2-0.4,0.4-0.8,0.6-1.2l1.6,0.8c-0.2,0.4-0.4,0.9-0.8,1.3c-0.2,0.4-0.6,0.9-0.9,1.3l1.9,1.9l-1.6,1.1
	L190.7,18z M187.3,17.9c0.4,0,0.8-0.1,1.1-0.2s0.7-0.4,1-0.8l-2.6-2.7c-0.6,0.2-0.9,0.6-1.2,0.9c-0.2,0.3-0.3,0.7-0.3,1.1l0,0
	c0,0.6,0.2,0.9,0.6,1.2C186.2,17.8,186.8,17.9,187.3,17.9z M187.6,12.3c0.6-0.2,1-0.4,1.3-0.8c0.3-0.3,0.4-0.7,0.4-1.1l0,0
	c0-0.3-0.1-0.7-0.3-1c-0.2-0.2-0.6-0.3-1-0.3s-0.8,0.1-1,0.4c-0.2,0.2-0.3,0.6-0.3,1l0,0c0,0.3,0.1,0.6,0.2,0.8
	C187,11.7,187.2,11.9,187.6,12.3z M212.2,7.7h2.2l2.8,8.7l2.9-8.7h1.8l2.9,8.7l2.8-8.7h2.1l-4.1,11.8h-1.8l-2.9-8.3l-2.9,8.3h-1.8
	L212.2,7.7z M241.5,19.6c-0.7,0-1.2-0.1-1.8-0.3s-1-0.6-1.4-0.9c-0.4-0.4-0.8-0.9-1-1.4c-0.2-0.6-0.3-1.2-0.3-1.9l0,0
	c0-0.7,0.1-1.2,0.3-1.8s0.6-1,0.9-1.4c0.3-0.4,0.9-0.8,1.3-1c0.6-0.2,1.1-0.3,1.8-0.3s1.3,0.1,1.9,0.3c0.6,0.2,1,0.6,1.3,1
	s0.7,0.9,0.8,1.6c0.2,0.6,0.2,1.2,0.2,1.8c0,0.1,0,0.2,0,0.2s0,0.2,0,0.3H239c0.1,0.8,0.4,1.2,0.9,1.7c0.4,0.3,1,0.6,1.7,0.6
	c0.6,0,0.9-0.1,1.3-0.2c0.3-0.2,0.8-0.4,1.1-0.8l1.2,1c-0.4,0.4-0.9,0.9-1.6,1.2C243.1,19.5,242.4,19.6,241.5,19.6z M243.5,14.3
	c0-0.3-0.1-0.7-0.2-0.9c-0.1-0.3-0.2-0.6-0.4-0.8c-0.2-0.2-0.4-0.3-0.7-0.4c-0.2-0.1-0.6-0.2-0.9-0.2c-0.7,0-1.1,0.2-1.6,0.7
	c-0.4,0.4-0.7,1-0.8,1.7h4.6L243.5,14.3L243.5,14.3z M258.8,19.6c-0.7,0-1.3-0.1-1.8-0.4c-0.4-0.3-0.9-0.7-1.2-1.1v1.3h-2V7.2h2v4.9
	c0.3-0.4,0.7-0.9,1.2-1.2c0.4-0.3,1.1-0.4,1.8-0.4c0.6,0,1,0.1,1.6,0.3c0.4,0.2,0.9,0.4,1.3,0.9c0.3,0.3,0.7,0.9,0.9,1.4
	c0.2,0.6,0.3,1.2,0.3,2l0,0c0,0.8-0.1,1.3-0.3,2c-0.2,0.6-0.6,1-0.9,1.4s-0.8,0.7-1.3,0.9C259.8,19.5,259.2,19.6,258.8,19.6z
	 M258.3,17.8c0.3,0,0.7-0.1,1-0.2s0.6-0.3,0.8-0.6c0.2-0.2,0.4-0.6,0.6-0.9c0.1-0.3,0.2-0.8,0.2-1.2l0,0c0-0.4-0.1-0.8-0.2-1.1
	c-0.1-0.3-0.3-0.7-0.6-0.9c-0.2-0.2-0.4-0.4-0.8-0.6c-0.3-0.1-0.7-0.2-1-0.2s-0.7,0.1-1,0.2s-0.6,0.3-0.8,0.6
	c-0.2,0.2-0.4,0.6-0.6,0.9c-0.1,0.3-0.2,0.8-0.2,1.1l0,0c0,0.4,0.1,0.8,0.2,1.1c0.1,0.3,0.3,0.7,0.6,0.9c0.2,0.2,0.6,0.4,0.8,0.6
	C257.7,17.8,258,17.8,258.3,17.8z M282.4,7.7h4.3c0.9,0,1.8,0.1,2.6,0.4s1.4,0.7,2,1.2s1,1.1,1.2,1.9c0.3,0.7,0.4,1.4,0.4,2.3l0,0
	c0,0.8-0.1,1.6-0.4,2.3c-0.3,0.7-0.8,1.3-1.2,1.9c-0.6,0.6-1.2,0.9-2,1.2c-0.8,0.3-1.6,0.4-2.6,0.4h-4.3V7.7z M286.7,17.6
	c0.6,0,1.1-0.1,1.7-0.3s0.9-0.4,1.2-0.8c0.3-0.3,0.7-0.8,0.8-1.2c0.2-0.4,0.3-1,0.3-1.6l0,0c0-0.6-0.1-1.1-0.3-1.6
	c-0.2-0.4-0.4-0.9-0.8-1.2c-0.3-0.3-0.8-0.7-1.2-0.8s-1.1-0.3-1.7-0.3h-2.3v8h2.3V17.6z M305.4,19.6c-0.7,0-1.2-0.1-1.8-0.3
	s-1-0.6-1.4-0.9c-0.4-0.4-0.8-0.9-1-1.4s-0.3-1.2-0.3-1.9l0,0c0-0.7,0.1-1.2,0.3-1.8s0.6-1,0.9-1.4s0.9-0.8,1.3-1
	c0.6-0.2,1.1-0.3,1.8-0.3c0.7,0,1.3,0.1,1.9,0.3c0.6,0.2,1,0.6,1.3,1s0.7,0.9,0.8,1.6c0.2,0.6,0.2,1.2,0.2,1.8c0,0.1,0,0.2,0,0.2
	s0,0.2,0,0.3H303c0.1,0.8,0.4,1.2,0.9,1.7c0.4,0.3,1,0.6,1.7,0.6c0.6,0,0.9-0.1,1.3-0.2s0.8-0.4,1.1-0.8l1.2,1
	c-0.4,0.4-0.9,0.9-1.6,1.2C306.9,19.5,306.2,19.6,305.4,19.6z M307.4,14.3c0-0.3-0.1-0.7-0.2-0.9c-0.1-0.3-0.2-0.6-0.4-0.8
	c-0.2-0.2-0.4-0.3-0.7-0.4c-0.2-0.1-0.6-0.2-0.9-0.2c-0.7,0-1.1,0.2-1.6,0.7c-0.4,0.4-0.7,1-0.8,1.7h4.6V14.3z M320.5,19.6
	c-0.7,0-1.2-0.1-1.9-0.3c-0.7-0.2-1.2-0.6-1.8-1l0.9-1.3c0.4,0.3,1,0.7,1.4,0.8c0.4,0.2,1,0.2,1.4,0.2s0.8-0.1,1-0.2
	s0.3-0.4,0.3-0.7l0,0c0-0.1,0-0.3-0.1-0.4s-0.2-0.2-0.4-0.3c-0.2-0.1-0.4-0.2-0.7-0.2c-0.2-0.1-0.4-0.1-0.8-0.2
	c-0.3-0.1-0.7-0.2-1-0.3c-0.3-0.1-0.7-0.3-0.9-0.4c-0.2-0.2-0.4-0.4-0.7-0.8c-0.2-0.3-0.2-0.7-0.2-1.1l0,0c0-0.4,0.1-0.8,0.2-1.1
	c0.1-0.3,0.3-0.7,0.7-0.9c0.3-0.2,0.7-0.4,1-0.6c0.3-0.1,0.8-0.2,1.2-0.2c0.6,0,1.1,0.1,1.7,0.2c0.6,0.2,1.1,0.4,1.6,0.8l-0.8,1.4
	c-0.4-0.2-0.9-0.4-1.3-0.6c-0.4-0.1-0.9-0.2-1.2-0.2c-0.4,0-0.7,0.1-0.9,0.2c-0.2,0.1-0.3,0.3-0.3,0.7l0,0c0,0.1,0,0.3,0.2,0.4
	c0.1,0.1,0.2,0.2,0.4,0.3c0.2,0.1,0.4,0.2,0.7,0.2c0.2,0.1,0.4,0.1,0.8,0.2c0.3,0.1,0.7,0.2,1,0.3c0.3,0.1,0.7,0.3,0.9,0.4
	c0.2,0.2,0.4,0.4,0.7,0.7c0.1,0.2,0.2,0.7,0.2,1l0,0c0,0.4-0.1,0.9-0.2,1.2c-0.2,0.3-0.4,0.7-0.7,0.9c-0.3,0.2-0.7,0.4-1,0.6
	C321.4,19.5,321,19.6,320.5,19.6z M332.1,7.3h2.2v1.9h-2.2V7.3z M332.1,10.6h2v8.8h-2V10.6z M346.8,22.1c-1.4,0-2.8-0.3-3.9-1
	l0.8-1.6c0.4,0.3,1,0.6,1.4,0.7s1.1,0.2,1.7,0.2c0.9,0,1.6-0.2,2.1-0.7c0.4-0.4,0.7-1.1,0.7-2V17c-0.3,0.4-0.8,0.9-1.3,1.1
	c-0.4,0.3-1.1,0.4-1.8,0.4c-0.6,0-1-0.1-1.4-0.3c-0.4-0.2-0.9-0.4-1.2-0.8c-0.3-0.3-0.7-0.8-0.9-1.3c-0.2-0.6-0.3-1.1-0.3-1.8l0,0
	c0-0.7,0.1-1.2,0.3-1.8c0.2-0.6,0.6-1,0.9-1.3s0.8-0.7,1.3-0.8c0.4-0.2,1-0.3,1.4-0.3c0.8,0,1.3,0.1,1.9,0.4
	c0.4,0.3,0.9,0.7,1.2,1.1v-1.3h2v7c0,1.4-0.3,2.6-1.1,3.3c-0.4,0.4-0.9,0.7-1.6,0.9C348.4,22,347.7,22.1,346.8,22.1z M347,17
	c0.3,0,0.7-0.1,1-0.2s0.6-0.3,0.8-0.6s0.4-0.4,0.6-0.8c0.1-0.3,0.2-0.7,0.2-1l0,0c0-0.3-0.1-0.7-0.2-1s-0.3-0.6-0.6-0.8
	c-0.2-0.2-0.6-0.3-0.8-0.6c-0.3-0.1-0.7-0.2-1-0.2s-0.7,0.1-1,0.2s-0.6,0.3-0.8,0.4c-0.2,0.2-0.4,0.4-0.6,0.8
	c-0.1,0.3-0.2,0.7-0.2,1l0,0c0,0.3,0.1,0.7,0.2,1s0.3,0.6,0.6,0.8c0.2,0.2,0.4,0.3,0.8,0.6S346.7,17,347,17z M360.3,10.6h2v1.3
	c0.1-0.2,0.3-0.4,0.4-0.6c0.2-0.2,0.3-0.3,0.6-0.4c0.2-0.1,0.4-0.2,0.8-0.3c0.2-0.1,0.6-0.1,0.9-0.1c1,0,1.8,0.3,2.3,0.9
	c0.6,0.6,0.8,1.4,0.8,2.4v5.6h-2v-5c0-0.7-0.1-1.2-0.4-1.6c-0.3-0.3-0.8-0.6-1.3-0.6s-1.1,0.2-1.4,0.6s-0.6,0.9-0.6,1.6v5h-2
	L360.3,10.6L360.3,10.6z M380.8,19.6c-0.7,0-1.2-0.1-1.8-0.3s-1-0.6-1.4-0.9c-0.4-0.4-0.8-0.9-1-1.4s-0.3-1.2-0.3-1.9l0,0
	c0-0.7,0.1-1.2,0.3-1.8s0.6-1,0.9-1.4s0.9-0.8,1.3-1c0.6-0.2,1.1-0.3,1.8-0.3s1.3,0.1,1.9,0.3c0.6,0.2,1,0.6,1.3,1s0.7,0.9,0.8,1.6
	c0.2,0.6,0.2,1.2,0.2,1.8c0,0.1,0,0.2,0,0.2s0,0.2,0,0.3h-6.5c0.1,0.8,0.4,1.2,0.9,1.7c0.4,0.3,1,0.6,1.7,0.6c0.6,0,0.9-0.1,1.3-0.2
	s0.8-0.4,1.1-0.8l1.2,1c-0.4,0.4-0.9,0.9-1.6,1.2C382.3,19.5,381.5,19.6,380.8,19.6z M382.8,14.3c0-0.3-0.1-0.7-0.2-0.9
	c-0.1-0.3-0.2-0.6-0.4-0.8c-0.2-0.2-0.4-0.3-0.7-0.4c-0.2-0.1-0.6-0.2-0.9-0.2c-0.7,0-1.1,0.2-1.6,0.7c-0.4,0.4-0.7,1-0.8,1.7h4.6
	V14.3z M392.9,10.6h2v2c0.3-0.7,0.7-1.2,1.2-1.6c0.6-0.4,1.1-0.6,1.9-0.6v2.1h-0.1c-0.4,0-0.9,0.1-1.2,0.2c-0.3,0.1-0.7,0.3-1,0.7
	c-0.2,0.3-0.4,0.7-0.7,1.1c-0.1,0.4-0.2,1-0.2,1.6v3.3h-2v-8.9L392.9,10.6L392.9,10.6z"/>
</svg>
