<?xml version="1.0" encoding="utf-8"?>
<!-- Generator: Adobe Illustrator 21.1.0, SVG Export Plug-In . SVG Version: 6.00 Build 0)  -->
<svg version="1.1" id="Calque_2" xmlns="http://www.w3.org/2000/svg" xmlns:xlink="http://www.w3.org/1999/xlink" x="0px" y="0px"
	 viewBox="0 0 506 506" style="enable-background:new 0 0 506 506;" xml:space="preserve">
<style type="text/css">
	.st0{fill:none;stroke:#26FF00;stroke-width:0.75;stroke-miterlimit:10;}
	.st1{fill:#F20C0C;}
	.st2{fill:#ED1C24;}
	.st3{fill:#FFFFFF;}
	.st4{fill:#0F5AEF;}
	.st5{fill:#FF0000;}
</style>
<path id="Virgule_x5F_mask" class="st0" d="M126.1,118.3c0,0,18.1-48.5,131.4-48.5c117.8,0,136.5,99.6,136.5,126.8
	c0,28.8-12.4,83.7-53.6,83.7c-42,0-71.5-91.4-71.5-91.4"/>
<path id="Virgule" d="M268.9,188.9c0,0,30.1,91.4,70.6,91.4s54.5-50.6,54.5-83.7S371,69.8,257.5,69.8s-131.4,48.5-131.4,48.5
	s19.2-51,133.8-51s138.2,95,138.2,130.5s-18.6,91-57.1,91S278.7,217,278.7,217L268.9,188.9L268.9,188.9z"/>


<path id="nom_x5F_O" class="st1" d="M380.4,246.2c-3.1,0-6-0.6-8.5-1.7c-2.7-1.1-4.9-2.5-6.8-4.4s-3.4-4.1-4.4-6.5
	c-1.1-2.5-1.7-5.2-1.7-8.1v-0.1c0-2.9,0.6-5.5,1.7-8.1c1.1-2.5,2.5-4.8,4.5-6.6c2-1.9,4.2-3.3,6.9-4.4c2.7-1.1,5.4-1.7,8.5-1.7
	s6,0.6,8.5,1.7c2.5,1.1,4.9,2.5,6.8,4.4s3.4,4.1,4.4,6.5s1.7,5.2,1.7,8.1v0.1c0,2.9-0.6,5.5-1.7,8.1c-1.1,2.5-2.5,4.8-4.5,6.6
	c-2,1.9-4.2,3.3-6.9,4.4C386.4,245.7,383.5,246.2,380.4,246.2z M380.5,236.3c1.6,0,2.9-0.3,4.2-0.9c1.2-0.6,2.3-1.3,3.2-2.3
	s1.6-2.1,2.1-3.4c0.4-1.3,0.8-2.7,0.8-4.1v-0.1c0-1.4-0.2-2.8-0.8-4.1c-0.4-1.3-1.2-2.4-2.1-3.4s-2-1.8-3.2-2.3
	c-1.2-0.6-2.7-0.9-4.2-0.9s-2.9,0.3-4.1,0.9c-1.2,0.6-2.3,1.3-3.2,2.3s-1.6,2.1-2.1,3.4c-0.4,1.3-0.7,2.7-0.7,4.1v0.1
	c0,1.4,0.2,2.8,0.8,4.1c0.4,1.3,1.2,2.4,2.1,3.4s2,1.8,3.2,2.3C377.6,235.9,379,236.3,380.5,236.3z"/>
<path id="nom_x5F_C2" class="st1" d="M121.3,246.2c-2.9,0-5.5-0.6-8.1-1.6c-2.5-1-4.7-2.4-6.5-4.3s-3.3-4-4.4-6.5s-1.7-5.3-1.7-8.3
	v-0.1c0-2.9,0.6-5.6,1.6-8.2c1.1-2.5,2.5-4.8,4.4-6.6s4.1-3.3,6.6-4.4s5.4-1.6,8.4-1.6c2.1,0,3.9,0.2,5.5,0.6c1.7,0.4,3.2,1,4.5,1.7
	c1.4,0.8,2.7,1.7,3.8,2.7s2.1,2.1,3,3.3l-8.3,6.4c-1.1-1.4-2.4-2.5-3.8-3.4c-1.3-0.9-3-1.2-5-1.2c-1.4,0-2.7,0.3-3.9,0.9
	c-1.1,0.6-2.1,1.3-3,2.2c-0.9,1-1.6,2.1-2,3.3c-0.4,1.3-0.7,2.7-0.7,4.1v0.1c0,1.6,0.2,2.9,0.7,4.2c0.4,1.3,1.1,2.4,2,3.4
	s1.9,1.7,3,2.2c1.1,0.6,2.4,0.9,3.9,0.9c1,0,2-0.1,2.9-0.3s1.7-0.6,2.3-1c0.7-0.4,1.3-0.9,2-1.6c0.7-0.6,1.2-1.2,1.9-2l8.3,6
	c-1,1.3-2,2.5-3.1,3.5c-1.1,1.1-2.4,2.1-3.9,2.9s-3,1.4-4.8,1.9C125.5,246,123.5,246.2,121.3,246.2z"/>
<path id="nom_x5F_S" class="st1" d="M297.5,246.1c-3.5,0-7-0.6-10.2-1.7s-6.1-2.8-8.5-5l6.2-7.4c4,3.2,8.3,4.8,13,4.8
	c1.4,0,2.7-0.2,3.4-0.7c0.8-0.4,1.2-1.1,1.2-2V234c0-0.4-0.1-0.8-0.3-1.1c-0.2-0.3-0.6-0.7-1.1-0.9c-0.6-0.3-1.2-0.6-2.1-0.9
	c-0.9-0.3-2-0.6-3.3-0.9c-2.1-0.4-4.1-1-6-1.7c-1.8-0.6-3.4-1.3-4.8-2.3c-1.3-0.9-2.4-2.1-3.2-3.4c-0.8-1.4-1.2-3.1-1.2-5.2v-0.1
	c0-1.9,0.3-3.5,1.1-5.1c0.7-1.6,1.8-2.9,3.1-4.1c1.3-1.1,3-2,4.9-2.7s4.1-0.9,6.4-0.9c3.4,0,6.4,0.4,9.2,1.3c2.7,0.9,5.1,2.2,7.3,4
	l-5.5,7.9c-1.8-1.3-3.7-2.3-5.6-3s-3.8-1-5.5-1c-1.3,0-2.3,0.2-3,0.8c-0.7,0.4-1,1.1-1,1.8v0.1c0,0.4,0.1,0.9,0.3,1.2
	s0.6,0.7,1.1,0.9c0.6,0.3,1.2,0.6,2.1,0.9s2,0.6,3.4,0.9c2.3,0.4,4.3,1.1,6.2,1.8c1.9,0.7,3.4,1.4,4.8,2.4c1.3,1,2.3,2.1,3,3.4
	c0.7,1.3,1,3,1,4.8v0.1c0,2.1-0.4,3.9-1.2,5.4c-0.8,1.6-1.9,3-3.3,4.1s-3.1,2-5.1,2.5C302.2,245.8,300,246.1,297.5,246.1z"/>
<path id="nom_x5F_A2" class="st2" d="M263.9,245.6l-2.8-7.2h-11.2l3.4-8.4h4.5l-4.5-11.5l-11,27.1h-11.5l17.1-40.2h10.6l16.8,40.2
	L263.9,245.6L263.9,245.6z"/>
<path id="nom_x5F_A2_x5F_mask" class="st3" d="M264.6,244.5l-2.8-7.2h-10.3l2.5-6.2h5.4l-6.1-15.6l-11.6,29h-9.4l16.2-38h9.1l16,38
	H264.6z"/>
<path id="nom_x5F_R" class="st1" d="M190.5,205.5h18.9c3.1,0,5.6,0.3,7.9,1.1c2.1,0.8,3.9,1.8,5.2,3.2c2.3,2.3,3.5,5.4,3.5,9.3v0.1
	c0,3.1-0.8,5.6-2.2,7.6s-3.4,3.5-6,4.7l9.5,14h-12.7l-8.1-12.1h-0.1h-4.8v12.1h-11.1L190.5,205.5L190.5,205.5L190.5,205.5z
	 M208.9,224.6c1.9,0,3.3-0.4,4.4-1.3c1-0.9,1.6-2,1.6-3.4v-0.1c0-1.6-0.6-2.8-1.6-3.5c-1.1-0.8-2.5-1.2-4.4-1.2h-7.2v9.6
	C201.7,224.6,208.9,224.6,208.9,224.6z"/>
<path id="nom_x5F_A" class="st2" d="M175.6,245.6l-2.8-7.2h-11.3l3.4-8.4h4.5l-4.5-11.5l-11,27.1h-11.5l17.2-40.2h10.6l16.8,40.2
	L175.6,245.6L175.6,245.6z"/>
<path id="nom_x5F_C" class="st1" d="M337.8,246.2c-2.9,0-5.5-0.6-8.1-1.6c-2.5-1-4.7-2.4-6.5-4.3s-3.3-4-4.4-6.5s-1.7-5.3-1.7-8.3
	v-0.1c0-2.9,0.6-5.6,1.6-8.2c1.1-2.5,2.5-4.8,4.4-6.6s4.1-3.3,6.6-4.4s5.4-1.6,8.4-1.6c2.1,0,3.9,0.2,5.5,0.6c1.7,0.4,3.2,1,4.5,1.7
	c1.4,0.8,2.7,1.7,3.8,2.7c1.1,1,2.1,2.1,3,3.3l-8.3,6.4c-1.1-1.4-2.4-2.5-3.8-3.4c-1.3-0.9-3-1.2-5-1.2c-1.4,0-2.7,0.3-3.9,0.9
	c-1.1,0.6-2.1,1.3-3,2.2c-0.9,1-1.6,2.1-2,3.3s-0.7,2.7-0.7,4.1v0.1c0,1.6,0.2,2.9,0.7,4.2c0.4,1.3,1.1,2.4,2,3.4s1.9,1.7,3,2.2
	c1.1,0.6,2.4,0.9,3.9,0.9c1,0,2-0.1,2.9-0.3s1.7-0.6,2.3-1c0.7-0.4,1.3-0.9,2-1.6c0.7-0.6,1.2-1.2,1.9-2l8.3,6c-1,1.3-2,2.5-3.1,3.5
	s-2.4,2.1-3.9,2.9c-1.4,0.8-3,1.4-4.8,1.9C342,246,340,246.2,337.8,246.2z"/>


<path id="A" class="st4" d="M268.9,188.9l54,129h-37l-9-23h-36l11-27h14.5l-14.5-37l-35,87h-37l55-129H268.9z"/>
<path id="A_x5F_mask_1_" class="st5" d="M288.6,313.9l-9-23h-32.8l7.7-19h17.7l-20.3-51.8l-37.8,93.8H186l51.6-121h28.7l50.7,121
	H288.6z"/>


<path id="logo_x26_web" class="st5" d="M105,260.7h2v9.8h6.1v1.9H105V260.7z M125.5,272.6c-0.7,0-1.3-0.1-1.9-0.3
	c-0.6-0.2-1.1-0.6-1.4-1c-0.4-0.4-0.8-0.9-1-1.4s-0.3-1.1-0.3-1.8l0,0c0-0.7,0.1-1.2,0.3-1.8s0.6-1,1-1.4s0.9-0.8,1.4-1
	c0.6-0.2,1.2-0.3,1.9-0.3s1.3,0.1,1.9,0.3c0.6,0.2,1.1,0.6,1.4,1s0.8,0.9,1,1.4c0.2,0.6,0.3,1.1,0.3,1.8l0,0c0,0.7-0.1,1.2-0.3,1.8
	c-0.2,0.6-0.6,1-1,1.4s-0.9,0.8-1.4,1C126.8,272.5,126.1,272.6,125.5,272.6z M125.5,270.8c0.4,0,0.8-0.1,1.1-0.2s0.6-0.3,0.9-0.6
	c0.2-0.2,0.4-0.6,0.6-0.9c0.1-0.3,0.2-0.7,0.2-1.1l0,0c0-0.3-0.1-0.8-0.2-1.1c-0.1-0.3-0.3-0.7-0.6-0.9c-0.2-0.2-0.6-0.4-0.9-0.6
	c-0.3-0.1-0.7-0.2-1.1-0.2s-0.8,0.1-1.1,0.2s-0.6,0.3-0.9,0.6c-0.2,0.2-0.4,0.6-0.6,0.9c-0.1,0.3-0.2,0.7-0.2,1.1l0,0
	c0,0.4,0.1,0.8,0.2,1.1c0.1,0.3,0.3,0.7,0.6,0.9c0.2,0.2,0.6,0.4,0.9,0.7C124.8,270.8,125.1,270.8,125.5,270.8z M142.3,275.1
	c-1.4,0-2.8-0.3-3.9-1l0.8-1.6c0.4,0.3,1,0.6,1.4,0.7s1.1,0.2,1.7,0.2c0.9,0,1.6-0.2,2.1-0.7c0.4-0.4,0.7-1.1,0.7-2V270
	c-0.3,0.4-0.8,0.9-1.3,1.1c-0.4,0.3-1.1,0.4-1.8,0.4c-0.6,0-1-0.1-1.6-0.3c-0.6-0.2-0.9-0.4-1.2-0.8c-0.3-0.3-0.7-0.8-0.9-1.3
	s-0.3-1.1-0.3-1.8l0,0c0-0.7,0.1-1.2,0.3-1.8s0.6-1,0.9-1.3c0.3-0.3,0.8-0.7,1.3-0.8s1-0.3,1.4-0.3c0.8,0,1.3,0.1,1.9,0.4
	s0.9,0.7,1.2,1.1v-1.3h2v7c0,1.4-0.3,2.6-1.1,3.3c-0.4,0.4-0.9,0.7-1.6,0.9C143.8,275,143.1,275.1,142.3,275.1z M142.5,270
	c0.3,0,0.7-0.1,1-0.2s0.6-0.3,0.8-0.6c0.2-0.2,0.4-0.4,0.6-0.8c0.1-0.3,0.2-0.7,0.2-1l0,0c0-0.3-0.1-0.7-0.2-1s-0.3-0.6-0.6-0.8
	c-0.2-0.2-0.6-0.3-0.8-0.6c-0.3-0.1-0.7-0.2-1-0.2s-0.7,0.1-1,0.2s-0.6,0.3-0.8,0.4c-0.2,0.2-0.4,0.4-0.6,0.8
	c-0.1,0.3-0.2,0.7-0.2,1l0,0c0,0.3,0.1,0.7,0.2,1s0.3,0.6,0.6,0.8c0.2,0.2,0.4,0.3,0.8,0.6C141.8,269.9,142.1,270,142.5,270z
	 M159.9,272.6c-0.7,0-1.3-0.1-1.9-0.3c-0.6-0.2-1.1-0.6-1.4-1c-0.4-0.4-0.8-0.9-1-1.4s-0.3-1.1-0.3-1.8l0,0c0-0.7,0.1-1.2,0.3-1.8
	s0.6-1,1-1.4s0.9-0.8,1.4-1c0.6-0.2,1.2-0.3,1.9-0.3s1.3,0.1,1.9,0.3c0.6,0.2,1.1,0.6,1.4,1c0.3,0.4,0.8,0.9,1,1.4s0.3,1.1,0.3,1.8
	l0,0c0,0.7-0.1,1.2-0.3,1.8s-0.6,1-1,1.4s-0.9,0.8-1.4,1C161.2,272.5,160.5,272.6,159.9,272.6z M159.9,270.8c0.4,0,0.8-0.1,1.1-0.2
	s0.6-0.3,0.9-0.6c0.2-0.2,0.4-0.6,0.6-0.9c0.1-0.3,0.2-0.7,0.2-1.1l0,0c0-0.3-0.1-0.8-0.2-1.1c-0.1-0.3-0.3-0.7-0.6-0.9
	c-0.2-0.2-0.6-0.4-0.9-0.6c-0.3-0.1-0.7-0.2-1.1-0.2c-0.4,0-0.8,0.1-1.1,0.2s-0.6,0.3-0.9,0.6c-0.2,0.2-0.4,0.6-0.6,0.9
	c-0.1,0.3-0.2,0.7-0.2,1.1l0,0c0,0.4,0.1,0.8,0.2,1.1c0.1,0.3,0.3,0.7,0.6,0.9s0.6,0.4,0.9,0.7C159.2,270.8,159.5,270.8,159.9,270.8
	z M190.7,271c-0.6,0.4-1,0.9-1.7,1.1c-0.6,0.2-1.2,0.4-2,0.4c-0.6,0-1-0.1-1.6-0.2c-0.4-0.1-0.9-0.3-1.2-0.7
	c-0.3-0.3-0.6-0.7-0.8-1.1s-0.3-0.9-0.3-1.3l0,0c0-0.8,0.2-1.4,0.7-1.9c0.4-0.6,1-1,1.9-1.3c-0.3-0.4-0.6-0.8-0.8-1.2
	c-0.1-0.3-0.2-0.8-0.2-1.2l0,0c0-0.3,0.1-0.8,0.2-1.1c0.1-0.3,0.3-0.7,0.7-0.9c0.3-0.2,0.7-0.4,1-0.7c0.4-0.1,0.9-0.2,1.4-0.2
	c0.4,0,0.9,0.1,1.2,0.2s0.7,0.3,1,0.6c0.2,0.2,0.4,0.6,0.7,0.9c0.1,0.3,0.2,0.7,0.2,1.1l0,0c0,0.8-0.2,1.4-0.7,1.9
	c-0.4,0.4-1.1,0.9-1.9,1.1l2,2c0.2-0.3,0.4-0.7,0.7-1.1c0.2-0.4,0.4-0.8,0.6-1.2l1.6,0.8c-0.2,0.4-0.4,0.9-0.8,1.3
	c-0.2,0.4-0.6,0.9-0.9,1.3l1.9,1.9l-1.6,1.1L190.7,271z M187.3,270.9c0.4,0,0.8-0.1,1.1-0.2s0.7-0.4,1-0.8l-2.6-2.7
	c-0.6,0.2-0.9,0.6-1.2,0.9c-0.2,0.3-0.3,0.7-0.3,1.1l0,0c0,0.6,0.2,0.9,0.6,1.2C186.2,270.8,186.8,270.9,187.3,270.9z M187.6,265.3
	c0.6-0.2,1-0.4,1.3-0.8c0.3-0.3,0.4-0.7,0.4-1.1l0,0c0-0.3-0.1-0.7-0.3-1c-0.2-0.2-0.6-0.3-1-0.3s-0.8,0.1-1,0.4
	c-0.2,0.2-0.3,0.6-0.3,1l0,0c0,0.3,0.1,0.6,0.2,0.8C187,264.7,187.2,264.9,187.6,265.3z M212.2,260.7h2.2l2.8,8.7l2.9-8.7h1.8
	l2.9,8.7l2.8-8.7h2.1l-4.1,11.8h-1.8l-2.9-8.3l-2.9,8.3h-1.8L212.2,260.7z M241.5,272.6c-0.7,0-1.2-0.1-1.8-0.3s-1-0.6-1.4-0.9
	c-0.4-0.4-0.8-0.9-1-1.4c-0.2-0.6-0.3-1.2-0.3-1.9l0,0c0-0.7,0.1-1.2,0.3-1.8s0.6-1,0.9-1.4c0.3-0.4,0.9-0.8,1.3-1
	c0.6-0.2,1.1-0.3,1.8-0.3s1.3,0.1,1.9,0.3c0.6,0.2,1,0.6,1.3,1s0.7,0.9,0.8,1.6c0.2,0.6,0.2,1.2,0.2,1.8c0,0.1,0,0.2,0,0.2
	s0,0.2,0,0.3H239c0.1,0.8,0.4,1.2,0.9,1.7c0.4,0.3,1,0.6,1.7,0.6c0.6,0,0.9-0.1,1.3-0.2c0.3-0.2,0.8-0.4,1.1-0.8l1.2,1
	c-0.4,0.4-0.9,0.9-1.6,1.2C243.1,272.5,242.4,272.6,241.5,272.6z M243.5,267.3c0-0.3-0.1-0.7-0.2-0.9c-0.1-0.3-0.2-0.6-0.4-0.8
	c-0.2-0.2-0.4-0.3-0.7-0.4c-0.2-0.1-0.6-0.2-0.9-0.2c-0.7,0-1.1,0.2-1.6,0.7c-0.4,0.4-0.7,1-0.8,1.7h4.6L243.5,267.3L243.5,267.3z
	 M258.8,272.6c-0.7,0-1.3-0.1-1.8-0.4c-0.4-0.3-0.9-0.7-1.2-1.1v1.3h-2v-12.2h2v4.9c0.3-0.4,0.7-0.9,1.2-1.2
	c0.4-0.3,1.1-0.4,1.8-0.4c0.6,0,1,0.1,1.6,0.3c0.4,0.2,0.9,0.4,1.3,0.9c0.3,0.3,0.7,0.9,0.9,1.4c0.2,0.6,0.3,1.2,0.3,2l0,0
	c0,0.8-0.1,1.3-0.3,2c-0.2,0.6-0.6,1-0.9,1.4s-0.8,0.7-1.3,0.9C259.8,272.5,259.2,272.6,258.8,272.6z M258.3,270.8
	c0.3,0,0.7-0.1,1-0.2s0.6-0.3,0.8-0.6c0.2-0.2,0.4-0.6,0.6-0.9c0.1-0.3,0.2-0.8,0.2-1.2l0,0c0-0.4-0.1-0.8-0.2-1.1
	c-0.1-0.3-0.3-0.7-0.6-0.9c-0.2-0.2-0.4-0.4-0.8-0.6c-0.3-0.1-0.7-0.2-1-0.2s-0.7,0.1-1,0.2s-0.6,0.3-0.8,0.6
	c-0.2,0.2-0.4,0.6-0.6,0.9c-0.1,0.3-0.2,0.8-0.2,1.1l0,0c0,0.4,0.1,0.8,0.2,1.1c0.1,0.3,0.3,0.7,0.6,0.9c0.2,0.2,0.6,0.4,0.8,0.6
	C257.7,270.8,258,270.8,258.3,270.8z M282.4,260.7h4.3c0.9,0,1.8,0.1,2.6,0.4s1.4,0.7,2,1.2s1,1.1,1.2,1.9c0.3,0.7,0.4,1.4,0.4,2.3
	l0,0c0,0.8-0.1,1.6-0.4,2.3c-0.3,0.7-0.8,1.3-1.2,1.9c-0.6,0.6-1.2,0.9-2,1.2c-0.8,0.3-1.6,0.4-2.6,0.4h-4.3V260.7z M286.7,270.6
	c0.6,0,1.1-0.1,1.7-0.3s0.9-0.4,1.2-0.8c0.3-0.3,0.7-0.8,0.8-1.2c0.2-0.4,0.3-1,0.3-1.6l0,0c0-0.6-0.1-1.1-0.3-1.6
	c-0.2-0.4-0.4-0.9-0.8-1.2c-0.3-0.3-0.8-0.7-1.2-0.8s-1.1-0.3-1.7-0.3h-2.3v8h2.3V270.6z M305.4,272.6c-0.7,0-1.2-0.1-1.8-0.3
	s-1-0.6-1.4-0.9c-0.4-0.4-0.8-0.9-1-1.4s-0.3-1.2-0.3-1.9l0,0c0-0.7,0.1-1.2,0.3-1.8s0.6-1,0.9-1.4s0.9-0.8,1.3-1
	c0.6-0.2,1.1-0.3,1.8-0.3c0.7,0,1.3,0.1,1.9,0.3c0.6,0.2,1,0.6,1.3,1s0.7,0.9,0.8,1.6c0.2,0.6,0.2,1.2,0.2,1.8c0,0.1,0,0.2,0,0.2
	s0,0.2,0,0.3H303c0.1,0.8,0.4,1.2,0.9,1.7c0.4,0.3,1,0.6,1.7,0.6c0.6,0,0.9-0.1,1.3-0.2s0.8-0.4,1.1-0.8l1.2,1
	c-0.4,0.4-0.9,0.9-1.6,1.2C306.9,272.5,306.2,272.6,305.4,272.6z M307.4,267.3c0-0.3-0.1-0.7-0.2-0.9c-0.1-0.3-0.2-0.6-0.4-0.8
	c-0.2-0.2-0.4-0.3-0.7-0.4c-0.2-0.1-0.6-0.2-0.9-0.2c-0.7,0-1.1,0.2-1.6,0.7c-0.4,0.4-0.7,1-0.8,1.7h4.6V267.3z M320.5,272.6
	c-0.7,0-1.2-0.1-1.9-0.3c-0.7-0.2-1.2-0.6-1.8-1l0.9-1.3c0.4,0.3,1,0.7,1.4,0.8c0.4,0.2,1,0.2,1.4,0.2s0.8-0.1,1-0.2
	s0.3-0.4,0.3-0.7l0,0c0-0.1,0-0.3-0.1-0.4s-0.2-0.2-0.4-0.3c-0.2-0.1-0.4-0.2-0.7-0.2c-0.2-0.1-0.4-0.1-0.8-0.2
	c-0.3-0.1-0.7-0.2-1-0.3c-0.3-0.1-0.7-0.3-0.9-0.4c-0.2-0.2-0.4-0.4-0.7-0.8c-0.2-0.3-0.2-0.7-0.2-1.1l0,0c0-0.4,0.1-0.8,0.2-1.1
	c0.1-0.3,0.3-0.7,0.7-0.9c0.3-0.2,0.7-0.4,1-0.6c0.3-0.1,0.8-0.2,1.2-0.2c0.6,0,1.1,0.1,1.7,0.2c0.6,0.2,1.1,0.4,1.6,0.8l-0.8,1.4
	c-0.4-0.2-0.9-0.4-1.3-0.6c-0.4-0.1-0.9-0.2-1.2-0.2c-0.4,0-0.7,0.1-0.9,0.2c-0.2,0.1-0.3,0.3-0.3,0.7l0,0c0,0.1,0,0.3,0.2,0.4
	c0.1,0.1,0.2,0.2,0.4,0.3c0.2,0.1,0.4,0.2,0.7,0.2c0.2,0.1,0.4,0.1,0.8,0.2c0.3,0.1,0.7,0.2,1,0.3c0.3,0.1,0.7,0.3,0.9,0.4
	c0.2,0.2,0.4,0.4,0.7,0.7c0.1,0.2,0.2,0.7,0.2,1l0,0c0,0.4-0.1,0.9-0.2,1.2c-0.2,0.3-0.4,0.7-0.7,0.9c-0.3,0.2-0.7,0.4-1,0.6
	C321.4,272.5,321,272.6,320.5,272.6z M332.1,260.3h2.2v1.9h-2.2V260.3z M332.1,263.6h2v8.8h-2V263.6z M346.8,275.1
	c-1.4,0-2.8-0.3-3.9-1l0.8-1.6c0.4,0.3,1,0.6,1.4,0.7s1.1,0.2,1.7,0.2c0.9,0,1.6-0.2,2.1-0.7c0.4-0.4,0.7-1.1,0.7-2V270
	c-0.3,0.4-0.8,0.9-1.3,1.1c-0.4,0.3-1.1,0.4-1.8,0.4c-0.6,0-1-0.1-1.4-0.3c-0.4-0.2-0.9-0.4-1.2-0.8c-0.3-0.3-0.7-0.8-0.9-1.3
	c-0.2-0.6-0.3-1.1-0.3-1.8l0,0c0-0.7,0.1-1.2,0.3-1.8c0.2-0.6,0.6-1,0.9-1.3s0.8-0.7,1.3-0.8c0.4-0.2,1-0.3,1.4-0.3
	c0.8,0,1.3,0.1,1.9,0.4c0.4,0.3,0.9,0.7,1.2,1.1v-1.3h2v7c0,1.4-0.3,2.6-1.1,3.3c-0.4,0.4-0.9,0.7-1.6,0.9
	C348.4,275,347.7,275.1,346.8,275.1z M347,270c0.3,0,0.7-0.1,1-0.2s0.6-0.3,0.8-0.6s0.4-0.4,0.6-0.8c0.1-0.3,0.2-0.7,0.2-1l0,0
	c0-0.3-0.1-0.7-0.2-1s-0.3-0.6-0.6-0.8c-0.2-0.2-0.6-0.3-0.8-0.6c-0.3-0.1-0.7-0.2-1-0.2s-0.7,0.1-1,0.2s-0.6,0.3-0.8,0.4
	c-0.2,0.2-0.4,0.4-0.6,0.8c-0.1,0.3-0.2,0.7-0.2,1l0,0c0,0.3,0.1,0.7,0.2,1s0.3,0.6,0.6,0.8c0.2,0.2,0.4,0.3,0.8,0.6
	S346.7,270,347,270z M360.3,263.6h2v1.3c0.1-0.2,0.3-0.4,0.4-0.6c0.2-0.2,0.3-0.3,0.6-0.4c0.2-0.1,0.4-0.2,0.8-0.3
	c0.2-0.1,0.6-0.1,0.9-0.1c1,0,1.8,0.3,2.3,0.9c0.6,0.6,0.8,1.4,0.8,2.4v5.6h-2v-5c0-0.7-0.1-1.2-0.4-1.6c-0.3-0.3-0.8-0.6-1.3-0.6
	s-1.1,0.2-1.4,0.6s-0.6,0.9-0.6,1.6v5h-2L360.3,263.6L360.3,263.6z M380.8,272.6c-0.7,0-1.2-0.1-1.8-0.3s-1-0.6-1.4-0.9
	c-0.4-0.4-0.8-0.9-1-1.4s-0.3-1.2-0.3-1.9l0,0c0-0.7,0.1-1.2,0.3-1.8s0.6-1,0.9-1.4s0.9-0.8,1.3-1c0.6-0.2,1.1-0.3,1.8-0.3
	s1.3,0.1,1.9,0.3c0.6,0.2,1,0.6,1.3,1s0.7,0.9,0.8,1.6c0.2,0.6,0.2,1.2,0.2,1.8c0,0.1,0,0.2,0,0.2s0,0.2,0,0.3h-6.5
	c0.1,0.8,0.4,1.2,0.9,1.7c0.4,0.3,1,0.6,1.7,0.6c0.6,0,0.9-0.1,1.3-0.2s0.8-0.4,1.1-0.8l1.2,1c-0.4,0.4-0.9,0.9-1.6,1.2
	C382.3,272.5,381.5,272.6,380.8,272.6z M382.8,267.3c0-0.3-0.1-0.7-0.2-0.9c-0.1-0.3-0.2-0.6-0.4-0.8c-0.2-0.2-0.4-0.3-0.7-0.4
	c-0.2-0.1-0.6-0.2-0.9-0.2c-0.7,0-1.1,0.2-1.6,0.7c-0.4,0.4-0.7,1-0.8,1.7h4.6V267.3z M392.9,263.6h2v2c0.3-0.7,0.7-1.2,1.2-1.6
	c0.6-0.4,1.1-0.6,1.9-0.6v2.1h-0.1c-0.4,0-0.9,0.1-1.2,0.2c-0.3,0.1-0.7,0.3-1,0.7c-0.2,0.3-0.4,0.7-0.7,1.1c-0.1,0.4-0.2,1-0.2,1.6
	v3.3h-2v-8.9L392.9,263.6L392.9,263.6z"/>
</svg>
