<?xml version="1.0" encoding="utf-8"?>
<!-- Generator: Adobe Illustrator 21.1.0, SVG Export Plug-In . SVG Version: 6.00 Build 0)  -->
<svg version="1.1" id="Calque_2" xmlns="http://www.w3.org/2000/svg" xmlns:xlink="http://www.w3.org/1999/xlink" x="0px" y="0px"
	 viewBox="0 0 506 253" style="enable-background:new 0 0 506 253;" xml:space="preserve">
<style type="text/css">
	.st0{fill:#F20C0C;}
	.st1{fill:#ED1C24;}
	.st2{fill:#FFFFFF;}
</style>
<path id="nom_x5F_O" class="st0" d="M380.4,246.2c-3.1,0-6-0.6-8.5-1.7c-2.7-1.1-4.9-2.5-6.8-4.4s-3.4-4.1-4.4-6.5
	c-1.1-2.5-1.7-5.2-1.7-8.1v-0.1c0-2.9,0.6-5.5,1.7-8.1c1.1-2.5,2.5-4.8,4.5-6.6c2-1.9,4.2-3.3,6.9-4.4c2.7-1.1,5.4-1.7,8.5-1.7
	s6,0.6,8.5,1.7c2.5,1.1,4.9,2.5,6.8,4.4s3.4,4.1,4.4,6.5s1.7,5.2,1.7,8.1v0.1c0,2.9-0.6,5.5-1.7,8.1c-1.1,2.5-2.5,4.8-4.5,6.6
	c-2,1.9-4.2,3.3-6.9,4.4C386.4,245.7,383.5,246.2,380.4,246.2z M380.5,236.3c1.6,0,2.9-0.3,4.2-0.9c1.2-0.6,2.3-1.3,3.2-2.3
	s1.6-2.1,2.1-3.4c0.4-1.3,0.8-2.7,0.8-4.1v-0.1c0-1.4-0.2-2.8-0.8-4.1c-0.4-1.3-1.2-2.4-2.1-3.4s-2-1.8-3.2-2.3
	c-1.2-0.6-2.7-0.9-4.2-0.9s-2.9,0.3-4.1,0.9c-1.2,0.6-2.3,1.3-3.2,2.3s-1.6,2.1-2.1,3.4c-0.4,1.3-0.7,2.7-0.7,4.1v0.1
	c0,1.4,0.2,2.8,0.8,4.1c0.4,1.3,1.2,2.4,2.1,3.4s2,1.8,3.2,2.3C377.6,235.9,379,236.3,380.5,236.3z"/>
<path id="nom_x5F_C2" class="st0" d="M121.3,246.2c-2.9,0-5.5-0.6-8.1-1.6c-2.5-1-4.7-2.4-6.5-4.3s-3.3-4-4.4-6.5s-1.7-5.3-1.7-8.3
	v-0.1c0-2.9,0.6-5.6,1.6-8.2c1.1-2.5,2.5-4.8,4.4-6.6s4.1-3.3,6.6-4.4s5.4-1.6,8.4-1.6c2.1,0,3.9,0.2,5.5,0.6c1.7,0.4,3.2,1,4.5,1.7
	c1.4,0.8,2.7,1.7,3.8,2.7s2.1,2.1,3,3.3l-8.3,6.4c-1.1-1.4-2.4-2.5-3.8-3.4c-1.3-0.9-3-1.2-5-1.2c-1.4,0-2.7,0.3-3.9,0.9
	c-1.1,0.6-2.1,1.3-3,2.2c-0.9,1-1.6,2.1-2,3.3c-0.4,1.3-0.7,2.7-0.7,4.1v0.1c0,1.6,0.2,2.9,0.7,4.2c0.4,1.3,1.1,2.4,2,3.4
	s1.9,1.7,3,2.2c1.1,0.6,2.4,0.9,3.9,0.9c1,0,2-0.1,2.9-0.3s1.7-0.6,2.3-1c0.7-0.4,1.3-0.9,2-1.6c0.7-0.6,1.2-1.2,1.9-2l8.3,6
	c-1,1.3-2,2.5-3.1,3.5c-1.1,1.1-2.4,2.1-3.9,2.9s-3,1.4-4.8,1.9C125.5,246,123.5,246.2,121.3,246.2z"/>
<path id="nom_x5F_S" class="st0" d="M297.5,246.1c-3.5,0-7-0.6-10.2-1.7s-6.1-2.8-8.5-5l6.2-7.4c4,3.2,8.3,4.8,13,4.8
	c1.4,0,2.7-0.2,3.4-0.7c0.8-0.4,1.2-1.1,1.2-2V234c0-0.4-0.1-0.8-0.3-1.1c-0.2-0.3-0.6-0.7-1.1-0.9c-0.6-0.3-1.2-0.6-2.1-0.9
	c-0.9-0.3-2-0.6-3.3-0.9c-2.1-0.4-4.1-1-6-1.7c-1.8-0.6-3.4-1.3-4.8-2.3c-1.3-0.9-2.4-2.1-3.2-3.4c-0.8-1.4-1.2-3.1-1.2-5.2v-0.1
	c0-1.9,0.3-3.5,1.1-5.1c0.7-1.6,1.8-2.9,3.1-4.1c1.3-1.1,3-2,4.9-2.7s4.1-0.9,6.4-0.9c3.4,0,6.4,0.4,9.2,1.3c2.7,0.9,5.1,2.2,7.3,4
	l-5.5,7.9c-1.8-1.3-3.7-2.3-5.6-3s-3.8-1-5.5-1c-1.3,0-2.3,0.2-3,0.8c-0.7,0.4-1,1.1-1,1.8v0.1c0,0.4,0.1,0.9,0.3,1.2
	s0.6,0.7,1.1,0.9c0.6,0.3,1.2,0.6,2.1,0.9s2,0.6,3.4,0.9c2.3,0.4,4.3,1.1,6.2,1.8c1.9,0.7,3.4,1.4,4.8,2.4c1.3,1,2.3,2.1,3,3.4
	c0.7,1.3,1,3,1,4.8v0.1c0,2.1-0.4,3.9-1.2,5.4c-0.8,1.6-1.9,3-3.3,4.1s-3.1,2-5.1,2.5C302.2,245.8,300,246.1,297.5,246.1z"/>
<path id="nom_x5F_A2" class="st1" d="M263.9,245.6l-2.8-7.2h-11.2l3.4-8.4h4.5l-4.5-11.5l-11,27.1h-11.5l17.1-40.2h10.6l16.8,40.2
	L263.9,245.6L263.9,245.6z"/>
<path id="nom_x5F_A2_x5F_mask" class="st2" d="M264.6,244.5l-2.8-7.2h-10.3l2.5-6.2h5.4l-6.1-15.6l-11.6,29h-9.4l16.2-38h9.1l16,38
	H264.6z"/>
<path id="nom_x5F_R" class="st0" d="M190.5,205.5h18.9c3.1,0,5.6,0.3,7.9,1.1c2.1,0.8,3.9,1.8,5.2,3.2c2.3,2.3,3.5,5.4,3.5,9.3v0.1
	c0,3.1-0.8,5.6-2.2,7.6s-3.4,3.5-6,4.7l9.5,14h-12.7l-8.1-12.1h-0.1h-4.8v12.1h-11.1L190.5,205.5L190.5,205.5L190.5,205.5z
	 M208.9,224.6c1.9,0,3.3-0.4,4.4-1.3c1-0.9,1.6-2,1.6-3.4v-0.1c0-1.6-0.6-2.8-1.6-3.5c-1.1-0.8-2.5-1.2-4.4-1.2h-7.2v9.6
	C201.7,224.6,208.9,224.6,208.9,224.6z"/>
<path id="nom_x5F_A" class="st1" d="M175.6,245.6l-2.8-7.2h-11.3l3.4-8.4h4.5l-4.5-11.5l-11,27.1h-11.5l17.2-40.2h10.6l16.8,40.2
	L175.6,245.6L175.6,245.6z"/>
<path id="nom_x5F_C" class="st0" d="M337.8,246.2c-2.9,0-5.5-0.6-8.1-1.6c-2.5-1-4.7-2.4-6.5-4.3s-3.3-4-4.4-6.5s-1.7-5.3-1.7-8.3
	v-0.1c0-2.9,0.6-5.6,1.6-8.2c1.1-2.5,2.5-4.8,4.4-6.6s4.1-3.3,6.6-4.4s5.4-1.6,8.4-1.6c2.1,0,3.9,0.2,5.5,0.6c1.7,0.4,3.2,1,4.5,1.7
	c1.4,0.8,2.7,1.7,3.8,2.7c1.1,1,2.1,2.1,3,3.3l-8.3,6.4c-1.1-1.4-2.4-2.5-3.8-3.4c-1.3-0.9-3-1.2-5-1.2c-1.4,0-2.7,0.3-3.9,0.9
	c-1.1,0.6-2.1,1.3-3,2.2c-0.9,1-1.6,2.1-2,3.3s-0.7,2.7-0.7,4.1v0.1c0,1.6,0.2,2.9,0.7,4.2c0.4,1.3,1.1,2.4,2,3.4s1.9,1.7,3,2.2
	c1.1,0.6,2.4,0.9,3.9,0.9c1,0,2-0.1,2.9-0.3s1.7-0.6,2.3-1c0.7-0.4,1.3-0.9,2-1.6c0.7-0.6,1.2-1.2,1.9-2l8.3,6c-1,1.3-2,2.5-3.1,3.5
	s-2.4,2.1-3.9,2.9c-1.4,0.8-3,1.4-4.8,1.9C342,246,340,246.2,337.8,246.2z"/>
</svg>
