<?xml version="1.0" encoding="utf-8"?>
<!-- Generator: Adobe Illustrator 16.0.0, SVG Export Plug-In . SVG Version: 6.00 Build 0)  -->
<!DOCTYPE svg PUBLIC "-//W3C//DTD SVG 1.1//EN" "http://www.w3.org/Graphics/SVG/1.1/DTD/svg11.dtd">
<svg version="1.1" id="Calque_2_-_copie_3" xmlns="http://www.w3.org/2000/svg" xmlns:xlink="http://www.w3.org/1999/xlink" x="0px"
	 y="0px" width="142.713px" height="133.224px" viewBox="0.287 -1.662 142.713 133.224"
	 enable-background="new 0.287 -1.662 142.713 133.224" xml:space="preserve">
<path fill="#F20C0C" d="M71.317,131.609c-9.883,0-19.033-1.738-27.451-5.215c-8.418-3.478-15.678-8.204-21.777-14.184
	c-6.102-5.976-10.889-12.992-14.366-21.045c-3.477-8.052-5.215-16.652-5.215-25.803v-0.365c0-9.151,1.738-17.78,5.215-25.895
	c3.477-8.112,8.327-15.189,14.548-21.228c6.222-6.039,13.542-10.797,21.96-14.274c8.418-3.477,17.568-5.216,27.45-5.216
	s19.032,1.739,27.45,5.216c8.418,3.477,15.675,8.206,21.776,14.182c6.1,5.979,10.889,12.993,14.366,21.045
	c3.477,8.052,5.216,16.653,5.216,25.803v0.367c0,9.149-1.739,17.781-5.216,25.895c-3.478,8.114-8.327,15.188-14.549,21.227
	c-6.222,6.039-13.542,10.798-21.96,14.275C90.349,129.871,81.198,131.609,71.317,131.609z M71.591,99.584
	c4.893,0,9.359-0.914,13.396-2.744s7.463-4.301,10.277-7.412c2.813-3.111,5.015-6.739,6.604-10.889
	c1.59-4.146,2.388-8.537,2.388-13.176v-0.365c0-4.636-0.798-9.028-2.388-13.177c-1.59-4.146-3.854-7.806-6.788-10.98
	c-2.937-3.171-6.422-5.702-10.459-7.594c-4.038-1.89-8.504-2.837-13.396-2.837c-4.896,0-9.331,0.915-13.305,2.745
	c-3.977,1.83-7.403,4.301-10.279,7.412s-5.078,6.742-6.605,10.889c-1.53,4.149-2.293,8.541-2.293,13.175v0.367
	c0,4.637,0.795,9.029,2.385,13.176c1.59,4.148,3.823,7.809,6.7,10.979c2.874,3.174,6.331,5.704,10.368,7.595
	C62.232,98.641,66.695,99.584,71.591,99.584z"/>
</svg>
