<?xml version="1.0" encoding="utf-8"?>
<!-- Generator: Adobe Illustrator 16.0.0, SVG Export Plug-In . SVG Version: 6.00 Build 0)  -->
<!DOCTYPE svg PUBLIC "-//W3C//DTD SVG 1.1//EN" "http://www.w3.org/Graphics/SVG/1.1/DTD/svg11.dtd">
<svg version="1.1" xmlns="http://www.w3.org/2000/svg" xmlns:xlink="http://www.w3.org/1999/xlink" x="0px" y="0px"
	 width="142.713px" height="133.224px" viewBox="0.287 -1.662 142.713 133.224"
	 enable-background="new 0.287 -1.662 142.713 133.224" xml:space="preserve">
<g id="Calque_1" display="none">
	<g id="Calque_2" display="inline">
		<polygon fill="#ED1C24" points="89,0.498 55,0.498 0,129.498 37,129.498 		"/>
	</g>
	<g id="Calque_3" display="inline">
		<polygon fill="#ED1C24" points="72,42.498 89,0.498 143,129.498 106,129.498 		"/>
	</g>
	<g id="Calque_4" display="inline">
		<polygon fill="#ED1C24" points="97,106.498 86.461,79.498 72,79.498 61,106.498 		"/>
	</g>
</g>
<g id="Calque_2_1_" display="none">
	<path display="inline" fill="#F20C0C" d="M76.166,131.563c-9.149,0-17.75-1.646-25.803-4.941
		c-8.052-3.293-15.037-7.896-20.953-13.816c-5.919-5.916-10.614-12.93-14.091-21.045c-3.477-8.111-5.215-16.928-5.215-26.443v-0.366
		c0-9.271,1.707-17.963,5.124-26.078c3.414-8.112,8.112-15.189,14.091-21.228c5.976-6.039,13.084-10.766,21.319-14.183
		c8.235-3.414,17.231-5.124,26.993-5.124c6.588,0,12.563,0.641,17.934,1.921c5.367,1.281,10.276,3.111,14.731,5.49
		c4.452,2.379,8.478,5.215,12.078,8.509c3.597,3.294,6.8,6.894,9.607,10.797l-26.718,20.679c-3.66-4.635-7.686-8.295-12.078-10.98
		c-4.393-2.682-9.699-4.026-15.921-4.026c-4.515,0-8.633,0.886-12.353,2.653c-3.723,1.77-6.926,4.181-9.608,7.229
		c-2.685,3.051-4.789,6.651-6.313,10.797c-1.527,4.149-2.287,8.541-2.287,13.176v0.366c0,4.758,0.76,9.241,2.287,13.45
		c1.524,4.209,3.629,7.841,6.313,10.889c2.682,3.051,5.885,5.462,9.608,7.229c3.72,1.771,7.838,2.654,12.353,2.654
		c3.294,0,6.313-0.366,9.058-1.098c2.746-0.732,5.244-1.799,7.504-3.203c2.256-1.401,4.392-3.049,6.404-4.941
		c2.014-1.89,3.995-3.994,5.947-6.313l26.719,19.031c-3.051,4.148-6.377,7.992-9.974,11.529c-3.601,3.539-7.687,6.588-12.261,9.15
		c-4.575,2.562-9.699,4.574-15.372,6.039C89.617,130.83,83.24,131.563,76.166,131.563z"/>
</g>
<g id="Calque_2_-_copie">
	<path fill="#F20C0C" d="M12.574,0.9h60.572c9.883,0,18.238,1.221,25.072,3.66c6.83,2.442,12.381,5.856,16.652,10.248
		c7.563,7.32,11.346,17.265,11.346,29.829v0.366c0,9.882-2.379,18.057-7.137,24.522c-4.758,6.468-11.164,11.409-19.215,14.823
		L130.426,129H89.434L63.631,90.205h-0.366H48.076V129H12.574V0.9z M71.5,62.389c6.1,0,10.797-1.373,14.09-4.118
		c3.295-2.745,4.941-6.434,4.941-11.071v-0.366c0-5.124-1.709-8.936-5.123-11.438c-3.418-2.499-8.115-3.751-14.091-3.751H48.076
		v30.744H71.5z"/>
</g>
<g id="Calque_2_-_copie_2" display="none">
	<path display="inline" fill="#F20C0C" d="M75.617,131.197c-11.468,0-22.357-1.781-32.665-5.34
		c-10.311-3.559-19.429-8.9-27.358-16.021l19.764-23.658c12.81,10.247,26.655,15.372,41.541,15.372
		c4.758,0,8.387-0.761,10.889-2.282c2.498-1.521,3.752-3.686,3.752-6.487v-0.363c0-1.338-0.307-2.527-0.916-3.563
		c-0.611-1.035-1.738-2.039-3.385-3.014c-1.646-0.973-3.843-1.916-6.588-2.832c-2.745-0.914-6.313-1.857-10.706-2.833
		c-6.834-1.581-13.176-3.317-19.032-5.204s-10.951-4.323-15.28-7.309c-4.332-2.982-7.749-6.697-10.248-11.143
		c-2.502-4.443-3.751-9.956-3.751-16.533v-0.363c0-5.967,1.126-11.449,3.385-16.441c2.256-4.993,5.55-9.316,9.882-12.97
		c4.329-3.654,9.544-6.485,15.646-8.495c6.099-2.007,12.993-3.014,20.679-3.014c10.979,0,20.771,1.444,29.372,4.329
		c8.6,2.885,16.377,7.151,23.332,12.795l-17.752,25.148c-5.855-4.146-11.865-7.289-18.024-9.424
		c-6.162-2.133-12.109-3.203-17.843-3.203c-4.271,0-7.474,0.792-9.607,2.376c-2.136,1.584-3.202,3.531-3.202,5.845v0.366
		c0,1.461,0.334,2.739,1.006,3.834c0.669,1.098,1.83,2.102,3.477,3.017s3.903,1.827,6.771,2.739
		c2.865,0.915,6.497,1.859,10.888,2.831c7.32,1.584,13.937,3.44,19.856,5.57c5.916,2.133,10.947,4.721,15.096,7.766
		c4.146,3.046,7.32,6.728,9.518,11.052c2.195,4.323,3.293,9.471,3.293,15.435v0.366c0,6.576-1.252,12.424-3.752,17.537
		c-2.502,5.115-6.01,9.47-10.521,13.061c-4.516,3.595-9.945,6.334-16.287,8.221C90.5,130.252,83.424,131.197,75.617,131.197z"/>
</g>
<g id="Calque_2_-_copie_3" display="none">
	<path display="inline" fill="#F20C0C" d="M71.317,131.609c-9.883,0-19.033-1.738-27.451-5.215
		c-8.418-3.478-15.678-8.204-21.777-14.184c-6.102-5.976-10.889-12.992-14.366-21.045c-3.477-8.052-5.215-16.652-5.215-25.803
		v-0.365c0-9.151,1.738-17.78,5.215-25.895c3.477-8.112,8.327-15.189,14.548-21.228c6.222-6.039,13.542-10.797,21.96-14.274
		c8.418-3.477,17.568-5.216,27.45-5.216s19.032,1.739,27.45,5.216c8.418,3.477,15.675,8.206,21.776,14.182
		c6.1,5.979,10.889,12.993,14.366,21.045c3.477,8.052,5.216,16.653,5.216,25.803v0.367c0,9.149-1.739,17.781-5.216,25.895
		c-3.478,8.114-8.327,15.188-14.549,21.227c-6.222,6.039-13.542,10.798-21.96,14.275C90.349,129.871,81.198,131.609,71.317,131.609z
		 M71.591,99.584c4.893,0,9.359-0.914,13.396-2.744s7.463-4.301,10.277-7.412c2.813-3.111,5.015-6.739,6.604-10.889
		c1.59-4.146,2.388-8.537,2.388-13.176v-0.365c0-4.636-0.798-9.028-2.388-13.177c-1.59-4.146-3.854-7.806-6.788-10.98
		c-2.937-3.171-6.422-5.702-10.459-7.594c-4.038-1.89-8.504-2.837-13.396-2.837c-4.896,0-9.331,0.915-13.305,2.745
		c-3.977,1.83-7.403,4.301-10.279,7.412s-5.078,6.742-6.605,10.889c-1.53,4.149-2.293,8.541-2.293,13.175v0.367
		c0,4.637,0.795,9.029,2.385,13.176c1.59,4.148,3.823,7.809,6.7,10.979c2.874,3.174,6.331,5.704,10.368,7.595
		C62.232,98.641,66.695,99.584,71.591,99.584z"/>
</g>
<g id="Calque_6" display="none">
</g>
</svg>
