<?xml version="1.0" encoding="utf-8"?>
<!-- Generator: Adobe Illustrator 16.0.0, SVG Export Plug-In . SVG Version: 6.00 Build 0)  -->
<!DOCTYPE svg PUBLIC "-//W3C//DTD SVG 1.1//EN" "http://www.w3.org/Graphics/SVG/1.1/DTD/svg11.dtd">
<svg version="1.1" id="Calque_2_-_copie_2" xmlns="http://www.w3.org/2000/svg" xmlns:xlink="http://www.w3.org/1999/xlink" x="0px"
	 y="0px" width="142.713px" height="133.224px" viewBox="0.287 -1.662 142.713 133.224"
	 enable-background="new 0.287 -1.662 142.713 133.224" xml:space="preserve">
<path fill="#F20C0C" d="M75.617,131.197c-11.468,0-22.357-1.781-32.665-5.34c-10.311-3.559-19.429-8.9-27.358-16.021l19.764-23.658
	c12.81,10.247,26.655,15.372,41.541,15.372c4.758,0,8.387-0.761,10.889-2.282c2.498-1.521,3.752-3.686,3.752-6.487v-0.363
	c0-1.338-0.307-2.527-0.916-3.563c-0.611-1.035-1.738-2.039-3.385-3.014c-1.646-0.973-3.843-1.916-6.588-2.832
	c-2.745-0.914-6.313-1.857-10.706-2.833c-6.834-1.581-13.176-3.317-19.032-5.204s-10.951-4.323-15.28-7.309
	c-4.332-2.982-7.749-6.697-10.248-11.143c-2.502-4.443-3.751-9.956-3.751-16.533v-0.363c0-5.967,1.126-11.449,3.385-16.441
	c2.256-4.993,5.55-9.316,9.882-12.97c4.329-3.654,9.544-6.485,15.646-8.495c6.099-2.007,12.993-3.014,20.679-3.014
	c10.979,0,20.771,1.444,29.372,4.329c8.6,2.885,16.377,7.151,23.332,12.795l-17.752,25.148c-5.855-4.146-11.865-7.289-18.024-9.424
	c-6.162-2.133-12.109-3.203-17.843-3.203c-4.271,0-7.474,0.792-9.607,2.376c-2.136,1.584-3.202,3.531-3.202,5.845v0.366
	c0,1.461,0.334,2.739,1.006,3.834c0.669,1.098,1.83,2.102,3.477,3.017s3.903,1.827,6.771,2.739
	c2.865,0.915,6.497,1.859,10.888,2.831c7.32,1.584,13.937,3.44,19.856,5.57c5.916,2.133,10.947,4.721,15.096,7.766
	c4.146,3.046,7.32,6.728,9.518,11.052c2.195,4.323,3.293,9.471,3.293,15.435v0.366c0,6.576-1.252,12.424-3.752,17.537
	c-2.502,5.115-6.01,9.47-10.521,13.061c-4.516,3.595-9.945,6.334-16.287,8.221C90.5,130.252,83.424,131.197,75.617,131.197z"/>
</svg>
