<?xml version="1.0" encoding="utf-8"?>
<!-- Generator: Adobe Illustrator 21.1.0, SVG Export Plug-In . SVG Version: 6.00 Build 0)  -->
<svg version="1.1" id="Calque_3" xmlns="http://www.w3.org/2000/svg" xmlns:xlink="http://www.w3.org/1999/xlink" x="0px" y="0px"
	 viewBox="0 0 272.1 252.9" style="enable-background:new 0 0 272.1 252.9;" xml:space="preserve">
<style type="text/css">
	.st0{fill:#FF0000;}
</style>
<path class="st0" d="M4.8,138.7h1.8v8.8h5.5v1.7H4.8V138.7z M23.2,149.4c-0.6,0-1.2-0.1-1.7-0.3s-1-0.5-1.3-0.9
	c-0.4-0.4-0.7-0.8-0.9-1.3s-0.3-1-0.3-1.6v0c0-0.6,0.1-1.1,0.3-1.6s0.5-0.9,0.9-1.3s0.8-0.7,1.3-0.9c0.5-0.2,1.1-0.3,1.7-0.3
	c0.6,0,1.2,0.1,1.7,0.3c0.5,0.2,1,0.5,1.3,0.9s0.7,0.8,0.9,1.3s0.3,1,0.3,1.6v0c0,0.6-0.1,1.1-0.3,1.6c-0.2,0.5-0.5,0.9-0.9,1.3
	s-0.8,0.7-1.3,0.9C24.4,149.3,23.8,149.4,23.2,149.4z M23.2,147.8c0.4,0,0.7-0.1,1-0.2c0.3-0.1,0.5-0.3,0.8-0.5
	c0.2-0.2,0.4-0.5,0.5-0.8c0.1-0.3,0.2-0.6,0.2-1v0c0-0.3-0.1-0.7-0.2-1c-0.1-0.3-0.3-0.6-0.5-0.8c-0.2-0.2-0.5-0.4-0.8-0.5
	c-0.3-0.1-0.6-0.2-1-0.2c-0.4,0-0.7,0.1-1,0.2c-0.3,0.1-0.5,0.3-0.8,0.5c-0.2,0.2-0.4,0.5-0.5,0.8c-0.1,0.3-0.2,0.6-0.2,1v0
	c0,0.4,0.1,0.7,0.2,1c0.1,0.3,0.3,0.6,0.5,0.8c0.2,0.2,0.5,0.4,0.8,0.6C22.6,147.8,22.9,147.8,23.2,147.8z M38.3,151.7
	c-1.3,0-2.5-0.3-3.5-0.9l0.7-1.4c0.4,0.3,0.9,0.5,1.3,0.6s1,0.2,1.5,0.2c0.8,0,1.4-0.2,1.9-0.6c0.4-0.4,0.6-1,0.6-1.8v-0.6
	c-0.3,0.4-0.7,0.8-1.2,1c-0.4,0.3-1,0.4-1.6,0.4c-0.5,0-0.9-0.1-1.4-0.3s-0.8-0.4-1.1-0.7c-0.3-0.3-0.6-0.7-0.8-1.2
	c-0.2-0.5-0.3-1-0.3-1.6v0c0-0.6,0.1-1.1,0.3-1.6c0.2-0.5,0.5-0.9,0.8-1.2s0.7-0.6,1.2-0.7s0.9-0.3,1.3-0.3c0.7,0,1.2,0.1,1.7,0.4
	s0.8,0.6,1.1,1v-1.2h1.8v6.3c0,1.3-0.3,2.3-1,3c-0.4,0.4-0.8,0.6-1.4,0.8C39.7,151.6,39,151.7,38.3,151.7z M38.5,147.1
	c0.3,0,0.6-0.1,0.9-0.2c0.3-0.1,0.5-0.3,0.7-0.5s0.4-0.4,0.5-0.7c0.1-0.3,0.2-0.6,0.2-0.9v0c0-0.3-0.1-0.6-0.2-0.9
	c-0.1-0.3-0.3-0.5-0.5-0.7c-0.2-0.2-0.5-0.3-0.7-0.5c-0.3-0.1-0.6-0.2-0.9-0.2c-0.3,0-0.6,0.1-0.9,0.2c-0.3,0.1-0.5,0.3-0.7,0.4
	c-0.2,0.2-0.4,0.4-0.5,0.7c-0.1,0.3-0.2,0.6-0.2,0.9v0c0,0.3,0.1,0.6,0.2,0.9c0.1,0.3,0.3,0.5,0.5,0.7c0.2,0.2,0.4,0.3,0.7,0.5
	C37.9,147,38.1,147.1,38.5,147.1z M54.1,149.4c-0.6,0-1.2-0.1-1.7-0.3s-1-0.5-1.3-0.9c-0.4-0.4-0.7-0.8-0.9-1.3s-0.3-1-0.3-1.6v0
	c0-0.6,0.1-1.1,0.3-1.6s0.5-0.9,0.9-1.3s0.8-0.7,1.3-0.9c0.5-0.2,1.1-0.3,1.7-0.3c0.6,0,1.2,0.1,1.7,0.3c0.5,0.2,1,0.5,1.3,0.9
	s0.7,0.8,0.9,1.3s0.3,1,0.3,1.6v0c0,0.6-0.1,1.1-0.3,1.6c-0.2,0.5-0.5,0.9-0.9,1.3s-0.8,0.7-1.3,0.9
	C55.3,149.3,54.7,149.4,54.1,149.4z M54.1,147.8c0.4,0,0.7-0.1,1-0.2c0.3-0.1,0.5-0.3,0.8-0.5c0.2-0.2,0.4-0.5,0.5-0.8
	c0.1-0.3,0.2-0.6,0.2-1v0c0-0.3-0.1-0.7-0.2-1c-0.1-0.3-0.3-0.6-0.5-0.8c-0.2-0.2-0.5-0.4-0.8-0.5c-0.3-0.1-0.6-0.2-1-0.2
	c-0.4,0-0.7,0.1-1,0.2c-0.3,0.1-0.5,0.3-0.8,0.5c-0.2,0.2-0.4,0.5-0.5,0.8c-0.1,0.3-0.2,0.6-0.2,1v0c0,0.4,0.1,0.7,0.2,1
	c0.1,0.3,0.3,0.6,0.5,0.8c0.2,0.2,0.5,0.4,0.8,0.6C53.5,147.8,53.8,147.8,54.1,147.8z M81.8,148c-0.5,0.4-0.9,0.8-1.5,1
	c-0.5,0.2-1.1,0.4-1.8,0.4c-0.5,0-0.9-0.1-1.4-0.2c-0.4-0.1-0.8-0.3-1.1-0.6c-0.3-0.3-0.5-0.6-0.7-1c-0.2-0.4-0.3-0.8-0.3-1.2v0
	c0-0.7,0.2-1.3,0.6-1.7c0.4-0.5,0.9-0.9,1.7-1.2c-0.3-0.4-0.5-0.7-0.7-1.1c-0.1-0.3-0.2-0.7-0.2-1.1v0c0-0.3,0.1-0.7,0.2-1
	c0.1-0.3,0.3-0.6,0.6-0.8c0.3-0.2,0.6-0.4,0.9-0.6c0.4-0.1,0.8-0.2,1.3-0.2c0.4,0,0.8,0.1,1.1,0.2c0.3,0.1,0.6,0.3,0.9,0.5
	c0.2,0.2,0.4,0.5,0.6,0.8c0.1,0.3,0.2,0.6,0.2,1v0c0,0.7-0.2,1.3-0.6,1.7c-0.4,0.4-1,0.8-1.7,1l1.8,1.8c0.2-0.3,0.4-0.6,0.6-1
	s0.4-0.7,0.5-1.1l1.4,0.7c-0.2,0.4-0.4,0.8-0.7,1.2c-0.2,0.4-0.5,0.8-0.8,1.2l1.7,1.7l-1.4,1L81.8,148z M78.8,147.9
	c0.4,0,0.7-0.1,1-0.2s0.6-0.4,0.9-0.7l-2.3-2.4c-0.5,0.2-0.8,0.5-1.1,0.8c-0.2,0.3-0.3,0.6-0.3,1v0c0,0.5,0.2,0.8,0.5,1.1
	S78.3,147.9,78.8,147.9z M79,142.9c0.5-0.2,0.9-0.4,1.2-0.7c0.3-0.3,0.4-0.6,0.4-1v0c0-0.3-0.1-0.6-0.3-0.9
	c-0.2-0.2-0.5-0.3-0.9-0.3c-0.4,0-0.7,0.1-0.9,0.4c-0.2,0.2-0.3,0.5-0.3,0.9v0c0,0.3,0.1,0.5,0.2,0.7
	C78.5,142.3,78.7,142.5,79,142.9z M101.1,138.7h2l2.5,7.8l2.6-7.8h1.6l2.6,7.8l2.5-7.8h1.9l-3.7,10.6h-1.6l-2.6-7.5l-2.6,7.5h-1.6
	L101.1,138.7z M127.5,149.4c-0.6,0-1.1-0.1-1.6-0.3c-0.5-0.2-0.9-0.5-1.3-0.8c-0.4-0.4-0.7-0.8-0.9-1.3c-0.2-0.5-0.3-1.1-0.3-1.7v0
	c0-0.6,0.1-1.1,0.3-1.6c0.2-0.5,0.5-0.9,0.8-1.3s0.8-0.7,1.2-0.9c0.5-0.2,1-0.3,1.6-0.3c0.6,0,1.2,0.1,1.7,0.3
	c0.5,0.2,0.9,0.5,1.2,0.9c0.3,0.4,0.6,0.8,0.7,1.4c0.2,0.5,0.2,1.1,0.2,1.6c0,0.1,0,0.2,0,0.2s0,0.2,0,0.3h-5.8
	c0.1,0.7,0.4,1.1,0.8,1.5c0.4,0.3,0.9,0.5,1.5,0.5c0.5,0,0.8-0.1,1.2-0.2c0.3-0.2,0.7-0.4,1-0.7l1.1,0.9c-0.4,0.4-0.8,0.8-1.4,1.1
	C128.9,149.3,128.3,149.4,127.5,149.4z M129.3,144.7c0-0.3-0.1-0.6-0.2-0.8c-0.1-0.3-0.2-0.5-0.4-0.7c-0.2-0.2-0.4-0.3-0.6-0.4
	c-0.2-0.1-0.5-0.2-0.8-0.2c-0.6,0-1,0.2-1.4,0.6s-0.6,0.9-0.7,1.5H129.3z M143,149.4c-0.6,0-1.2-0.1-1.6-0.4c-0.4-0.3-0.8-0.6-1.1-1
	v1.2h-1.8v-11h1.8l0,4.4c0.3-0.4,0.6-0.8,1.1-1.1c0.4-0.3,1-0.4,1.6-0.4c0.5,0,0.9,0.1,1.4,0.3c0.4,0.2,0.8,0.4,1.2,0.8
	c0.3,0.3,0.6,0.8,0.8,1.3c0.2,0.5,0.3,1.1,0.3,1.8v0c0,0.7-0.1,1.2-0.3,1.8c-0.2,0.5-0.5,0.9-0.8,1.3c-0.3,0.4-0.7,0.6-1.2,0.8
	C143.9,149.3,143.4,149.4,143,149.4z M142.6,147.8c0.3,0,0.6-0.1,0.9-0.2s0.5-0.3,0.7-0.5c0.2-0.2,0.4-0.5,0.5-0.8
	c0.1-0.3,0.2-0.7,0.2-1.1v0c0-0.4-0.1-0.7-0.2-1c-0.1-0.3-0.3-0.6-0.5-0.8c-0.2-0.2-0.4-0.4-0.7-0.5s-0.6-0.2-0.9-0.2
	c-0.3,0-0.6,0.1-0.9,0.2c-0.3,0.1-0.5,0.3-0.7,0.5s-0.4,0.5-0.5,0.8c-0.1,0.3-0.2,0.7-0.2,1v0c0,0.4,0.1,0.7,0.2,1
	c0.1,0.3,0.3,0.6,0.5,0.8c0.2,0.2,0.5,0.4,0.7,0.5C142,147.8,142.3,147.8,142.6,147.8z M164.2,138.7h3.9c0.8,0,1.6,0.1,2.3,0.4
	s1.3,0.6,1.8,1.1c0.5,0.5,0.9,1,1.1,1.7c0.3,0.6,0.4,1.3,0.4,2.1v0c0,0.7-0.1,1.4-0.4,2.1c-0.3,0.6-0.7,1.2-1.1,1.7
	c-0.5,0.5-1.1,0.8-1.8,1.1c-0.7,0.3-1.4,0.4-2.3,0.4h-3.9V138.7z M168.1,147.6c0.5,0,1-0.1,1.5-0.3s0.8-0.4,1.1-0.7s0.6-0.7,0.7-1.1
	c0.2-0.4,0.3-0.9,0.3-1.4v0c0-0.5-0.1-1-0.3-1.4c-0.2-0.4-0.4-0.8-0.7-1.1s-0.7-0.6-1.1-0.7s-1-0.3-1.5-0.3h-2.1v7.2H168.1z
	 M184.9,149.4c-0.6,0-1.1-0.1-1.6-0.3s-0.9-0.5-1.3-0.8c-0.4-0.4-0.7-0.8-0.9-1.3c-0.2-0.5-0.3-1.1-0.3-1.7v0c0-0.6,0.1-1.1,0.3-1.6
	c0.2-0.5,0.5-0.9,0.8-1.3c0.3-0.4,0.8-0.7,1.2-0.9c0.5-0.2,1-0.3,1.6-0.3c0.6,0,1.2,0.1,1.7,0.3c0.5,0.2,0.9,0.5,1.2,0.9
	c0.3,0.4,0.6,0.8,0.7,1.4c0.2,0.5,0.2,1.1,0.2,1.6c0,0.1,0,0.2,0,0.2s0,0.2,0,0.3h-5.8c0.1,0.7,0.4,1.1,0.8,1.5
	c0.4,0.3,0.9,0.5,1.5,0.5c0.5,0,0.8-0.1,1.2-0.2s0.7-0.4,1-0.7l1.1,0.9c-0.4,0.4-0.8,0.8-1.4,1.1
	C186.2,149.3,185.6,149.4,184.9,149.4z M186.7,144.7c0-0.3-0.1-0.6-0.2-0.8c-0.1-0.3-0.2-0.5-0.4-0.7c-0.2-0.2-0.4-0.3-0.6-0.4
	c-0.2-0.1-0.5-0.2-0.8-0.2c-0.6,0-1,0.2-1.4,0.6c-0.4,0.4-0.6,0.9-0.7,1.5H186.7z M198.5,149.4c-0.6,0-1.1-0.1-1.7-0.3
	s-1.1-0.5-1.6-0.9l0.8-1.2c0.4,0.3,0.9,0.6,1.3,0.7c0.4,0.2,0.9,0.2,1.3,0.2c0.4,0,0.7-0.1,0.9-0.2s0.3-0.4,0.3-0.6v0
	c0-0.1,0-0.3-0.1-0.4c-0.1-0.1-0.2-0.2-0.4-0.3s-0.4-0.2-0.6-0.2c-0.2-0.1-0.4-0.1-0.7-0.2c-0.3-0.1-0.6-0.2-0.9-0.3
	c-0.3-0.1-0.6-0.3-0.8-0.4c-0.2-0.2-0.4-0.4-0.6-0.7c-0.2-0.3-0.2-0.6-0.2-1v0c0-0.4,0.1-0.7,0.2-1c0.1-0.3,0.3-0.6,0.6-0.8
	c0.3-0.2,0.6-0.4,0.9-0.5c0.3-0.1,0.7-0.2,1.1-0.2c0.5,0,1,0.1,1.5,0.2c0.5,0.2,1,0.4,1.4,0.7l-0.7,1.3c-0.4-0.2-0.8-0.4-1.2-0.5
	c-0.4-0.1-0.8-0.2-1.1-0.2c-0.4,0-0.6,0.1-0.8,0.2c-0.2,0.1-0.3,0.3-0.3,0.6v0c0,0.1,0,0.3,0.2,0.4c0.1,0.1,0.2,0.2,0.4,0.3
	s0.4,0.2,0.6,0.2c0.2,0.1,0.4,0.1,0.7,0.2c0.3,0.1,0.6,0.2,0.9,0.3c0.3,0.1,0.6,0.3,0.8,0.4c0.2,0.2,0.4,0.4,0.6,0.6
	c0.1,0.2,0.2,0.6,0.2,0.9v0c0,0.4-0.1,0.8-0.2,1.1c-0.2,0.3-0.4,0.6-0.6,0.8c-0.3,0.2-0.6,0.4-0.9,0.5
	C199.3,149.3,198.9,149.4,198.5,149.4z M208.9,138.4h2v1.7h-2V138.4z M208.9,141.3h1.8v7.9h-1.8V141.3z M222.1,151.7
	c-1.3,0-2.5-0.3-3.5-0.9l0.7-1.4c0.4,0.3,0.9,0.5,1.3,0.6s1,0.2,1.5,0.2c0.8,0,1.4-0.2,1.9-0.6c0.4-0.4,0.6-1,0.6-1.8v-0.6
	c-0.3,0.4-0.7,0.8-1.2,1c-0.4,0.3-1,0.4-1.6,0.4c-0.5,0-0.9-0.1-1.3-0.3c-0.4-0.2-0.8-0.4-1.1-0.7c-0.3-0.3-0.6-0.7-0.8-1.2
	c-0.2-0.5-0.3-1-0.3-1.6v0c0-0.6,0.1-1.1,0.3-1.6s0.5-0.9,0.8-1.2c0.3-0.3,0.7-0.6,1.2-0.7c0.4-0.2,0.9-0.3,1.3-0.3
	c0.7,0,1.2,0.1,1.7,0.4c0.4,0.3,0.8,0.6,1.1,1v-1.2h1.8v6.3c0,1.3-0.3,2.3-1,3c-0.4,0.4-0.8,0.6-1.4,0.8
	C223.5,151.6,222.9,151.7,222.1,151.7z M222.3,147.1c0.3,0,0.6-0.1,0.9-0.2c0.3-0.1,0.5-0.3,0.7-0.5s0.4-0.4,0.5-0.7
	c0.1-0.3,0.2-0.6,0.2-0.9v0c0-0.3-0.1-0.6-0.2-0.9c-0.1-0.3-0.3-0.5-0.5-0.7c-0.2-0.2-0.5-0.3-0.7-0.5c-0.3-0.1-0.6-0.2-0.9-0.2
	c-0.3,0-0.6,0.1-0.9,0.2c-0.3,0.1-0.5,0.3-0.7,0.4c-0.2,0.2-0.4,0.4-0.5,0.7s-0.2,0.6-0.2,0.9v0c0,0.3,0.1,0.6,0.2,0.9
	c0.1,0.3,0.3,0.5,0.5,0.7s0.4,0.3,0.7,0.5C221.7,147,222,147.1,222.3,147.1z M234.2,141.3h1.8v1.2c0.1-0.2,0.3-0.4,0.4-0.5
	c0.2-0.2,0.3-0.3,0.5-0.4c0.2-0.1,0.4-0.2,0.7-0.3c0.2-0.1,0.5-0.1,0.8-0.1c0.9,0,1.6,0.3,2.1,0.8c0.5,0.5,0.7,1.3,0.7,2.2v5h-1.8
	v-4.5c0-0.6-0.1-1.1-0.4-1.4c-0.3-0.3-0.7-0.5-1.2-0.5c-0.5,0-1,0.2-1.3,0.5c-0.3,0.3-0.5,0.8-0.5,1.4v4.5h-1.8V141.3z M252.6,149.4
	c-0.6,0-1.1-0.1-1.6-0.3s-0.9-0.5-1.3-0.8c-0.4-0.4-0.7-0.8-0.9-1.3c-0.2-0.5-0.3-1.1-0.3-1.7v0c0-0.6,0.1-1.1,0.3-1.6
	c0.2-0.5,0.5-0.9,0.8-1.3c0.3-0.4,0.8-0.7,1.2-0.9c0.5-0.2,1-0.3,1.6-0.3c0.6,0,1.2,0.1,1.7,0.3c0.5,0.2,0.9,0.5,1.2,0.9
	c0.3,0.4,0.6,0.8,0.7,1.4c0.2,0.5,0.2,1.1,0.2,1.6c0,0.1,0,0.2,0,0.2s0,0.2,0,0.3h-5.8c0.1,0.7,0.4,1.1,0.8,1.5
	c0.4,0.3,0.9,0.5,1.5,0.5c0.5,0,0.8-0.1,1.2-0.2s0.7-0.4,1-0.7l1.1,0.9c-0.4,0.4-0.8,0.8-1.4,1.1C254,149.3,253.3,149.4,252.6,149.4
	z M254.4,144.7c0-0.3-0.1-0.6-0.2-0.8c-0.1-0.3-0.2-0.5-0.4-0.7c-0.2-0.2-0.4-0.3-0.6-0.4c-0.2-0.1-0.5-0.2-0.8-0.2
	c-0.6,0-1,0.2-1.4,0.6c-0.4,0.4-0.6,0.9-0.7,1.5H254.4z M263.5,141.3h1.8v1.8c0.3-0.6,0.6-1.1,1.1-1.4c0.5-0.4,1-0.5,1.7-0.5v1.9
	h-0.1c-0.4,0-0.8,0.1-1.1,0.2s-0.6,0.3-0.9,0.6c-0.2,0.3-0.4,0.6-0.6,1c-0.1,0.4-0.2,0.9-0.2,1.4v3h-1.8V141.3z"/>
</svg>
