<?xml version="1.0" encoding="utf-8"?>
<!-- Generator: Adobe Illustrator 21.1.0, SVG Export Plug-In . SVG Version: 6.00 Build 0)  -->
<svg version="1.1" id="Calque_3" xmlns="http://www.w3.org/2000/svg" xmlns:xlink="http://www.w3.org/1999/xlink" x="0px" y="0px"
	 viewBox="0 0 272.1 252.9" style="enable-background:new 0 0 272.1 252.9;" xml:space="preserve">
<path d="M89.3,98.2H78.5v-8.8h31.7v8.8H99.3v27.3h-10V98.2z M132.7,126.3c-2.8,0-5.4-0.5-7.7-1.5c-2.4-1-4.4-2.3-6.1-4
	s-3.1-3.7-4-5.9s-1.5-4.7-1.5-7.3v-0.1c0-2.6,0.5-5,1.5-7.3s2.3-4.3,4.1-6c1.8-1.7,3.8-3,6.2-4c2.4-1,5-1.5,7.7-1.5
	c2.8,0,5.4,0.5,7.7,1.5c2.4,1,4.4,2.3,6.1,4c1.7,1.7,3.1,3.7,4,5.9c0.9,2.2,1.5,4.7,1.5,7.3v0.1c0,2.6-0.5,5-1.5,7.3s-2.3,4.3-4.1,6
	s-3.8,3-6.2,4C138.1,125.8,135.5,126.3,132.7,126.3z M132.8,117.2c1.4,0,2.6-0.3,3.8-0.8c1.1-0.5,2.1-1.2,2.9-2.1s1.4-1.9,1.9-3.1
	c0.4-1.2,0.7-2.4,0.7-3.7v-0.1c0-1.3-0.2-2.5-0.7-3.7c-0.4-1.2-1.1-2.2-1.9-3.1s-1.8-1.6-2.9-2.1c-1.1-0.5-2.4-0.8-3.8-0.8
	c-1.4,0-2.6,0.3-3.8,0.8c-1.1,0.5-2.1,1.2-2.9,2.1s-1.4,1.9-1.9,3.1c-0.4,1.2-0.6,2.4-0.6,3.7v0.1c0,1.3,0.2,2.5,0.7,3.7
	c0.4,1.2,1.1,2.2,1.9,3.1s1.8,1.6,2.9,2.1C130.2,117,131.4,117.2,132.8,117.2z M157.4,89.4h13.9c3.2,0,6.1,0.4,8.6,1.3
	s4.7,2.1,6.4,3.7s3.1,3.5,4,5.6c0.9,2.2,1.4,4.6,1.4,7.2v0.1c0,2.6-0.5,5-1.4,7.2s-2.3,4.1-4,5.8c-1.8,1.6-3.9,2.9-6.5,3.8
	s-5.5,1.4-8.7,1.4h-13.7V89.4z M171.5,116.7c3,0,5.4-0.8,7.2-2.4s2.7-3.8,2.7-6.8v-0.1c0-2.9-0.9-5.1-2.7-6.7s-4.2-2.4-7.2-2.4h-4.1
	v18.4H171.5z M209.4,89.2h9.6l15.4,36.4h-10.7l-2.6-6.4h-13.9l-2.6,6.4h-10.5L209.4,89.2z M218.1,111.4l-4-10.3l-4.1,10.3H218.1z
	 M248.3,112l-13.7-22.6H246l7.4,13.2l7.5-13.2h11.2l-13.7,22.4v13.7h-10.1L248.3,112L248.3,112z"/>
</svg>
