<?xml version="1.0" encoding="utf-8"?>
<!-- Generator: Adobe Illustrator 22.0.0, SVG Export Plug-In . SVG Version: 6.00 Build 0)  -->
<svg version="1.1" id="Calque_1" xmlns="http://www.w3.org/2000/svg" xmlns:xlink="http://www.w3.org/1999/xlink" x="0px" y="0px"
	 viewBox="0 0 3000 275" style="enable-background:new 0 0 3000 275;" xml:space="preserve">
<style type="text/css">
	.st0{fill:#FFFFFF;}
	.st1{fill:none;stroke:#FFFFFF;stroke-width:5;stroke-miterlimit:10;}
</style>
<path class="st0" d="M0,148c107,0,245-62,429-62s258,92,396,92s172-41,242-41s86,27,176,27s106-78,234-78s226,80,368,80
	s188-34,296-34s122,30,248,30s164-76,296-76s160,46,315,46v143H0V148z"/>
<path class="st1" d="M0,148c107,0,245-62,429-62s258,92,396,92s172-41,242-41s86,27,176,27s106-78,234-78s226,80,368,80
	s188-34,296-34s122,30,248,30s164-76,296-76s160,46,315,46"/>
</svg>
